<svg id="Calque_2" data-name="Calque 2" xmlns="http://www.w3.org/2000/svg" width="507.11" height="245.08" viewBox="0 0 507.11 245.08">
  <defs>
    <style>
      .cls-1 {
        fill: #fbfbfb;
      }

      .cls-2 {
        fill: #373737;
      }

      .cls-3 {
        fill: #f7f7f7;
      }

      .cls-4 {
        fill: #f5f5f5;
      }

      .cls-5 {
        fill: #f2f2f2;
      }

      .cls-6 {
        fill: #3e3e3e;
      }

      .cls-7 {
        fill: #232323;
      }

      .cls-8 {
        fill: #474747;
      }

      .cls-9 {
        fill: #dcdcdc;
      }

      .cls-10 {
        fill: #565656;
      }

      .cls-11 {
        fill: #e8e8e8;
      }

      .cls-12 {
        fill: #5f5f5f;
      }

      .cls-13 {
        fill: #707070;
      }

      .cls-14 {
        fill: #969696;
      }

      .cls-15 {
        fill: #f8f8f8;
      }

      .cls-16 {
        fill: #f9f9f9;
      }

      .cls-17 {
        fill: #fafafa;
      }

      .cls-18 {
        fill: #f6f6f6;
      }

      .cls-19 {
        fill: #ededed;
      }

      .cls-20 {
        fill: #eee;
      }

      .cls-21 {
        fill: #efefef;
      }

      .cls-22 {
        fill: #f0f0f0;
      }

      .cls-23 {
        fill: #3b3b3b;
      }

      .cls-24 {
        fill: #b8b8b8;
      }

      .cls-25 {
        fill: #e4e4e4;
      }

      .cls-26 {
        fill: #cecece;
      }

      .cls-27 {
        fill: #9b9b9b;
      }

      .cls-28 {
        fill: #989898;
      }

      .cls-29 {
        fill: #727272;
      }

      .cls-30 {
        fill: #696969;
      }

      .cls-31 {
        fill: #363636;
      }

      .cls-32 {
        fill: #646464;
      }

      .cls-33 {
        fill: #bebebe;
      }

      .cls-34 {
        fill: #cacaca;
      }

      .cls-35 {
        fill: #333;
      }

      .cls-36 {
        fill: #8a8a8a;
      }

      .cls-37 {
        fill: #c5c5c5;
      }

      .cls-38 {
        fill: #8b8b8b;
      }

      .cls-39 {
        fill: #7c7c7c;
      }

      .cls-40 {
        fill: #d0d0d0;
      }

      .cls-41 {
        fill: #393939;
      }

      .cls-42 {
        fill: #d2d2d2;
      }

      .cls-43 {
        fill: #6d6d6d;
      }

      .cls-44 {
        fill: #212121;
      }

      .cls-45 {
        font-size: 36px;
        fill: #cbab00;
        font-family: PlayfairDisplay-Bold, Playfair Display;
        font-weight: 700;
      }

      .cls-46 {
        letter-spacing: -0.01em;
      }

      .cls-47 {
        letter-spacing: 0em;
      }
    </style>
  </defs>
  <title>logo_enigma</title>
  <g id="logo_enigma">
    <path class="cls-1" d="M546.31-15.93,92.43,218c1.4,4.81,5.21,3.23,8.12,2.67,8.36-1.61,16.65-3.64,25-5.51a32.73,32.73,0,0,0,3.44-.49c7.93-1.84,10-5.45,7.78-13.17-.95-3.25-1.83-6.51-2.73-9.73,4-1,7.15-1.83,10.37-2.48,3.81-.78,7.17-2.95,6.74-6.72-.56-4.89-2.63-9.64-4.44-14.3-.25-.65-2.79-.77-4.17-.54-3.76.6-7.47,1.51-11.2,2.3l-2.09.82c-4.7,1-9.43,1.8-14.11,2.88-3.64.84-6.85.76-10-3.92,3.18-1.32,6-2.58,8.91-3.68s6.34-1.17,8.24-3c4.79-4.72,10.84-5.56,16.76-6.73,26.53-5.28,53.12-10.24,79.64-15.59,4.32-.87,8.37-3.11,12.54-4.71l-.09.06c2.27.06,4.6.5,6.79.12,19.4-3.43,38.77-7,58.17-10.5a17.31,17.31,0,0,1,4.21.3c.34,1,.69,2,1,3l7.78,4.29c6.21-8.08,18-12.24,24.44-9a16,16,0,0,0-2.14,2.68c-3.29,6.58-1.82,11.63,5,14.06,2.62.92,5.4,1.67,7.69,3.15,3.39,2.19,6.13,1.95,8.75-1,1-1.09,1.88-2.25,3.51-4.22,4.86,11.79,13.63,17.64,25,18,11.59.35,21.06-4.4,25.19-16.58l3.85,3.54c8.45,8.15,15,7.08,27.1.86,7.24-3.73,12-16.3,10-24.13l.2-3.27c8.31,3,12.16,2.39,15.59-2.3l2.86-3.69c5.45-7.47,4.31-13.86-4.13-22,2.41-2,4.94-3.92,7.14-6.11s3.9-4.55,5.76-6.76L459.67,71.1c5-7,5.61-16.23.94-21-2.54-2.61-6.16-5.29-9.55-5.67-4.53-.51-9.31,1.19-14.44,2,.42.7.2.43.09.13-4.59-11.93-13.15-19.13-25.9-20.35-11.63-1.11-18.37,5.83-22.94,15.62-.28.6-1.74.64-2.65.94l-2.51-2.65-5.54-3.85c-3.58-.23-7.32-1.25-10.7-.55a28.18,28.18,0,0,0-22.08,23.42c-1,6.14-1,6.14-6.54,4.3-7.12-2.37-11.71,1.12-11.76,8.6a11.48,11.48,0,0,1-2,5.59c-2,3.23-3.09,6.19,0,9.38a30.3,30.3,0,0,1,2.57,3.83c-7,2.43-12.51,8-20.35,4.34-5.7-1.85-8.45-.5-11.36,4.71a8.68,8.68,0,0,1-4.84,4c-20.41,4.56-40.87,8.9-61.34,13.19-19.69,4.13-39.36,8.35-59.12,12.14-18.5,3.55-36.7,8.7-55.79,9.34-8.26.28-16.46,3.18-24.65,5.08-13.09,3-26.12,6.32-39.22,9.3-8.32,1.89-11,5-10.77,13.15.27,8.49,3.13,11.61,11.77,12.85l8.14-.83L61.37,184l-10.13,4.06c-4.25.26-6.36,2.56-6,6.76.47,4.79,0,10.07,6,12.34,1.11.42,1.86,2.21,2.43,3.52,1,2.39,1.78,4.89,2.64,7.34l2.1,7.53c4.27,6.7,9.45,2.28,14.73.23-.3-.93-.59-1.83-.89-2.74l6.54,1,4.36-1c4,.53,5.49-1,4.56-5.06s-1.63-8.46-2.39-12.7c-.46-2.6-1.87-3.67-4.53-3.23a44.81,44.81,0,0,1-5.31,0c1.84-2.75,2.65-5.48,4.32-6.18A110.73,110.73,0,0,1,95,191.2c5.06-1.32,6-.41,6.27,5l.09-.14c-10.74,1.46-12.9,4.47-10.57,14.75C91.34,213.18,91.88,215.61,92.43,218Z" transform="translate(-39.2 15.93)"/>
    <path class="cls-2" d="M463.27,115.16c-3.43,4.69-7.28,5.31-15.59,2.3-.07,1.16-.14,2.22-.2,3.27-.33,1.44-.65,2.87-1,4.3-1-3.09-2-6.18-3.1-9.26s-2.08-5.88-3.12-8.81c5.63,2.26,6.58-2.31,8.34-4.27,2.26-2.5,1.56-5.39-1.15-7.57,8-4.49,16.86-7.69,23.48-16.46-20.35-11.93-41.07-9.93-60.62-4.07.9-4.13,1.84-8.45,2.78-12.75.74,2.6,1.47,5.21,2.26,8,7.57.67,9.51-4,10-10.41a25,25,0,0,0-.17-5c-1.79-14.34-11.77-19.51-24-14.42.93-1,1.67-2.37,2.8-3.09,11-7,24.39,4.29,25.31,13.36.52,5,.1,10.16.1,15.29,3.07.28,5-2.14,4.91-5.71-.1-5.08.49-10.78-1.58-15.09-4.16-8.67-11.31-14.64-21.49-15.79-4.28.81-8.6,1.49-12.81,2.57-.6.16-.72,2.23-1.06,3.42-1.33,2.83-2.87,5.59-3.95,8.52-2.23,6.09,2.42,13.17,9.8,9.42-1.83,1.57-3.66,3.13-5.25,4.51,5.18,1.27,8.19-.11,9.36-5.58.64-3,.56-6.65-3.8-7.87-.11,1.51-.2,2.77-.29,4l-7.11-1.32L401.38,40c.31.69.43,1.7,1,2,8.88,5.37,9.06,5.76,6.4,14.27l4.48,5.7c-1.27-.7-2.53-2-3.8-2a27.63,27.63,0,0,0-7.33,1.26c-.22.06.14,2.25.24,3.45h1c.53-1.08,1.06-2.17,1.6-3.25-1.32,3.84,5.75,7.25.59,11.06-3.08,2.29-6.12,4.64-9.3,7,1.4,2.54,3.88,2.42,7.46,1.66,11.33-2.41,22.75-4.9,34.26-5.88,7.87-.67,16.11.33,23.41,4.25l.5,1.64-12.51,6c-2.75.87-5.65,1.47-8.2,2.76-1.07.54-1.39,2.55-2.05,3.89,0,.81-.32,2.22-.07,2.32a39.62,39.62,0,0,0,4.61,1.44c-1.16,1.85-2.46,3.91-4,6.29L428.54,93.2l24-10.5c-.18-.72-.35-1.43-.53-2.15l-13.12-1.7c-9.06-1.16-13.27,1.2-17,9.48l6.74,5c-4.63-1.41-9.46-4-12.39,1.21,4.07,2.12,8.24,3.89,11.93,6.36,2.25,1.5,3.86,4,5.6,6.21,5.12,6.41,7.88,13.55,5.51,21.78-2.19,7.58-7.71,11.77-15.23,13.43-4.72,1.05-10.22-2.33-11.06-7a8.29,8.29,0,0,1,1.14-4.66c.19-.41,1.91-.07,2.41-.07.14,2.24-.33,4.33.49,5.14s2.89.22,4.35-.09c.69-.14,1.21-1.08,1.81-1.65l1.22,2.2-1.67,2.29c7.69-2.19,11.7-6.41,13.56-13.19,2-7.26-1.78-12.37-5.51-17.75-2.18-3.15-4.49-4.09-6.5-2.87.36,4.36.66,7.86,1,11.36-.54-6.86-5.48-10.37-10.41-14.21l6.7,1.78.49-1.6c-3.75-1.19-7.42-2.93-11.26-3.45-6.71-.9-13.54-.82-20.27-1.61-5.14-.6-6.27-.44-9.65,4.1,6.22,1.08,12.33,2.31,18.49,3.18,6,.83,12.21-.18,17.24,4.9,2.38,2.4,3.46,4,1.65,7L414,112.77c-.75,1.42-1.29,2.45-1.83,3.45L422.32,121l4,5-3-1c-5.57-4.38-11.6-3.22-15.22,2.68l10.78-3.63.64,1.75c-5-.44-8.11,2.63-8.66,6.43-.41,2.8,2.17,6,3.42,9.08l-4.29-.31.45,2.93-3.85-3.54c-4.13,12.18-13.6,16.93-25.19,16.58-11.34-.34-20.11-6.19-25-18-1.63,2-2.53,3.13-3.51,4.22-2.62,2.91-5.36,3.15-8.75,1-2.29-1.48-5.07-2.23-7.69-3.15-6.86-2.43-8.33-7.48-5-14.06a16,16,0,0,1,2.14-2.68c-6.43-3.21-18.23,1-24.44,9l-7.78-4.29,4.36-.91L302,122.69l8.17-1-1,6.52c7.12-3.37,1.24-7.95,2.55-12.13l41.54-9.26-.13-.74-9.29,1,2.65-2.25c-.89-.55-1.74-1.44-2.69-1.57a10.65,10.65,0,0,0-3.39.63l-30.13,6.27c0-3.25.51-5.39-.13-7.12-.8-2.18-2.53-4-3.87-6V95.16c7.84,3.69,13.4-1.91,20.35-4.34A30.3,30.3,0,0,0,324.09,87c-3.07-3.19-2-6.15,0-9.38a11.48,11.48,0,0,0,2-5.59c.05-7.48,4.64-11,11.76-8.6,5.52,1.84,5.52,1.84,6.54-4.3A28.18,28.18,0,0,1,366.47,35.7c3.38-.7,7.12.32,10.7.55l.12,6.26c-6.43-2.39-12.55-.61-18.37,1.9-7.09,3.07-12.33,12.85-11,20.61,1,5.84,3.29,11.46,4.24,17.3,1.1,6.7,8.3,12,16.5,9.73l-6.16-3.64a9,9,0,0,1,4.38-1.22c8.79-.76,17.5-.66,26,2l-8,3.47c.2.69.4,1.38.59,2.07l11.34-.65-.67-1.48.21-3.51,7.56-2.71-.18-1.34c-5-.72-10-1.19-14.9-2.22-4.56-1-9-2.49-13.5-3.77l2.06-.07c9.89,3.83,17.11-2,24.51-6.91.8-.54,1.54-2.64,1.15-3.23-2.87-4.32-5-9.5-9.46-10.37-3.79,4.52-6.7,8.78-10.43,12.1-1.88,1.68-5.26,1.67-8,2.43l-2-.91c-2.46.06-6.74-.58-7.06.29-1.46,3.84-1.85,8.13,2.67,11.5-3.44,0-8,.22-9.27-1.71a53.2,53.2,0,0,1-6.75-15.44c-2.78-10,2.13-17.51,12.24-19.89l2.15,1.09c-6.59,1.43-9.41,6.31-10.75,12.22-1.87,8.2.32,16,4.93,19.84,1.18-3.48,2.42-7.17,4-11.93-3.14-3.93-2.46-9,1-13.31l11-1.32,1.79.67v6.53c-2.69-1.36-4.38-2.61-6.23-2.94-.63-.11-2.48,2.27-2.32,3.27a6.36,6.36,0,0,0,2.77,4.34,7.52,7.52,0,0,0,5.56.06c2.06-.83,3.73-2.63,5.57-4,0,4.94-4,5.92-7.44,6.47a9.44,9.44,0,0,1-6.46-2c-1.55-1.2-2.15-3.63-3.28-5.74-1.44,3.46-.56,5.82,2.59,7.53,4.24,2.31,8.63,2.85,12.71.13,5.33-3.55,6.44-9.05,5.37-15a101.49,101.49,0,0,0-2.84-10c.91-.3,2.37-.34,2.65-.94,4.57-9.79,11.31-16.73,22.94-15.62,12.75,1.22,21.31,8.42,25.9,20.35.11.3.33.57-.09-.13,5.13-.82,9.91-2.52,14.44-2,3.39.38,7,3.06,9.55,5.67,4.67,4.8,4.08,14-.94,21l15.23,5.49c-1.86,2.21-3.64,4.65-5.76,6.76s-4.73,4.07-7.14,6.11c8.44,8.15,9.58,14.54,4.13,22a33.2,33.2,0,0,0,1-5.33c.08-3.08.53-6.43-.49-9.19-1.31-3.59-4.45-5.57-8.72-4.67-2.75.58-5.66,1.68-5,4.76.49,2.24,3,4,4.61,6l1.05-.82-.53,5.84h-.45c-2.09-1.19-4.53-3.69-6.18-3.25-2,.54-4.7,3.63-4.61,5.49.11,2.15,2.71,5.61,4.64,5.91C455.23,116.8,459.31,115.61,463.27,115.16Zm-111-3.06-1.23,2.59,1.12.79c6.5-3.81,8.48-11,12-17.32-2.56-1.66-5.17-2.67-6.79-4.54-2.4-2.76-4.82-3.74-8.17-2.36.19-.81.37-1.62.56-2.42-10.17-2.73-19.56.94-20.26,9.36,3.81-1.45,7-2.73,10.24-3.87,2.42-.86,4.91-1.54,7.36-2.3-.13.1-.32.17-.37.3a.53.53,0,0,0,.09.45c2.16,2.58,4.28,5.22,6.54,7.72,3.59,4,2.53,7.33-1.16,10.45-7.73,1-15.61,1.48-23.14,3.36-4,1-7.35,4.5-11,6.87l1.11,2Zm22.86-5.89,4.13-3.79-5.71-1.8,11.58-9.19c-11.2,0-22.09,8.92-24.08,19.11l11.13-5.32,3.06.89c-11.94,8.5-25.37,12.68-40.15,13.28,6.89,4,13.78,3.08,20.49,1s13-4.87,19.46-7.32c-.35,1.55-1.46,3.64-1,5.35a10.48,10.48,0,0,0,3.74,5.67c1.05.74,3.66,0,5.15-.88.75-.42.77-2.54.65-3.84,0-.44-1.51-.75-2.33-1.12-.24,1.2-.47,2.4-.75,3.79-2.65.32-4.38-.47-2.47-3.47,2.36-3.73,5.15-7.17,8.91-12.31ZM385.35,124l1.86,2c-1.25,1.48-2.51,2.95-4.34,5.09l5.39,3c.62-1.77,1.25-3.54,2.09-5.93,1.33.5,3,1.09,4.57,1.72A7.89,7.89,0,0,1,400.1,138c-.27,3.86-1.12,8.67-6.29,8.83-6,.2-12.39.42-18-1.27-10-3-14.82-10.7-14.27-21.37-4.87-.51-7.27,1.33-6.27,5.85.55,2.53,2.08,4.89,3.41,7.19,6,10.26,15.63,14.4,26.8,16,6.85,1,18.74-5.55,19-14.53.18-6.12.08-12.81,6.18-17,.33-.22.41-1.29.18-1.76-2-4.1,0-6.89,3.15-9.24-5.71-4.44-8.9-4.87-11.46-1.72-5.19-6.72-12-2.72-21.56,7.88,4.65,1.12,8.72,1.93,12.68,3.12a75.81,75.81,0,0,1,7.77,3.23l-.61,1.24C395.7,122.46,390.66,119,385.35,124Zm-18-6.09c-.89,1.63-2.62,3.5-2.93,5.58a17.63,17.63,0,0,0,3.89,14.18c5.13,6.42,15.6,10,23.08,7.18,5.66-2.11,7.3-8.07,3.26-11.74-2.57,3.1-4.72,7.08-9.88,5s-6.31-4.32-5.47-9.7Zm89.91-57c-2.32-.71-4.52-2-6.45-1.74-1.25.21-2.85,2.81-2.91,4.39s1.42,4.29,2.61,4.52c2.44.47,5.83.5,7.59-.88,4.71-3.65,4.7-10.84.73-16.19-3.05-4.1-12.32-6.45-16.27-3.73-1.7,1.16-4.11,4-3.69,5a13.51,13.51,0,0,0,5.49,6.09c.85.51,3.39-1.57,5-2.71.29-.2-.28-1.6-.46-2.45l-4.53,1.21a9.49,9.49,0,0,0-1.24.62c2.26-4.79,5.88-6.1,9.74-4C457.81,53.73,459.21,57.54,457.3,60.89ZM336.65,76.11c-1.43,3.37-3.5,4-6.85,3.18-1.6-.4-3.77,1.49-5.68,2.35.55,1.22.77,2.83,1.7,3.58,4,3.27,10.63,2.06,14.12-2.37,4.69-6,4.79-11.16-.47-14.68-2-1.32-5.7-1.74-7.68-.72-1.68.86-3.23,4.81-2.61,6.63C330.1,76.76,333,78.82,336.65,76.11Zm5.7,52.35.81,1.51c-2.07,2.05-1.14,4.53,2.51,4.94,4.09.46,3.46,2.64,3.6,5.57-2.08-1.5-3.39-2.79-5-3.35-.43-.16-1.64,1.88-2.81,3.29,2.07.79,3.56,2,4.78,1.71,2.47-.5,5.18-1.31,7-2.9.94-.83,1-4.31.06-5.36-4.07-4.58-8.59-8.75-15.56-8-5,.59-6.57,3.61-4.68,7.84Zm82.1-46c-11.31-1.35-18.34,5.16-26.1,12.6,4.19.35,8.19,2,10.26.6C414.32,91.88,419.23,86.91,424.45,82.42Zm-77.14,16.1a47.92,47.92,0,0,1-5.34.24c-4.76-.3-9.68-.12-14.22-1.32C322.27,96,318,97.78,313,99.78,319.6,105.52,331.69,105.25,347.31,98.52Zm90.94-41.88c-1.3,4.59-2.13,7.54-3.14,11.08l10.41,1.49.92-1.14C444,64.59,441.47,61.12,438.25,56.64ZM345.44,76.73l-3.64,7.56,7-1.8C347.62,80.49,346.74,79,345.44,76.73Z" transform="translate(-39.2 15.93)"/>
    <path class="cls-2" d="M306.31,95.16V97a13.1,13.1,0,0,1-2.69,1c-7.87,1.18-8.09,1.42-7.5,9.09a19,19,0,0,0,.67,2.2q1.79,8.35,3.53,16.73a17.31,17.31,0,0,0-4.21-.3c-19.4,3.47-38.77,7.07-58.17,10.5-2.19.38-4.52-.06-6.79-.12,1.74-.74,3.41-1.81,5.23-2.15,12.36-2.29,24.76-4.39,37.13-6.67,1.66-.31,3.18-1.34,4.77-2l-.51-1.43-26.87,5.42c-.17-.76-.34-1.52-.5-2.27l19.53-5.13c2.31-.39,4.94-.58,2.34-3.9l10.22-1.39,11.93-3.49c-.12-.55-.25-1.1-.37-1.66-17.43,3.79-35.57,2.86-53,9.72l2.34-3-37.91,11-.34-1,3.64-1.76L205,124.59c-1.83.93-3.32,2.19-5,2.44-4.18.65-8.43.84-12.66,1.21l-12.67,3,.14.68H183l-62.55,11.38.37,2.11,37.66-6.79.38,1.77c-2.47.56-4.92,1.14-7.39,1.69-9.08,2-18.19,3.85-27.22,6.07-4.56,1.12-5,3.13-2,6,1.55.59,3.26,1.92,4.64,1.64,6.21-1.29,12.32-3,18.47-4.6,11.16-2.55,22.31-5.12,33.48-7.62,10.52-2.36,21-4.71,31.59-6.89,1.37-.28,3,.5,4.46.79l-.24,1.43c3.37-.81,8.52-.57,9.75-2.65,2.5-4.24,6.34-3.9,9.71-5.3l2,1c-1.36.39-2.91.51-4,1.28-.67.47-.64,1.93-.92,3-4.17,1.6-8.22,3.84-12.54,4.71-26.52,5.35-53.11,10.31-79.64,15.59-5.92,1.17-12,2-16.76,6.73-1.9,1.87-5.48,2-8.24,3s-5.73,2.36-8.91,3.68c3.11,4.68,6.32,4.76,10,3.92,4.68-1.08,9.41-1.93,14.11-2.88,4,.93,8,1.92,12,2.7.3.06.88-1.3,1.59-2.42l-11.53-1.1c3.73-.79,7.44-1.7,11.2-2.3,1.38-.23,3.92-.11,4.17.54,1.81,4.66,3.88,9.41,4.44,14.3.43,3.77-2.93,5.94-6.74,6.72-3.22.65-6.4,1.52-10.37,2.48.9,3.22,1.78,6.48,2.73,9.73,2.26,7.72.15,11.33-7.78,13.17a32.73,32.73,0,0,1-3.44.49l-3.18-1.08c2.7-.74,5.38-1.55,8.1-2.19s3.47-2.15,2.81-4.72c-1.4-5.38-2.74-10.77-4.11-16.16l19.25-5.94c-1.4-3.42-2.54-6.22-3.71-9.07l-15.79,1.84,1.48-2.89-18.69,2.3.12,1.08,5.65.65-3.94,4.41,0,0c-6.58-2.84-13.11-5.83-19.8-8.42-1.68-.65-3.92-.31-5.8.09-5.46,1.15-11,4-16.25,3.49-5.6-.57-7.87,1.82-10.3,5.5-.75-2-1.49-4-2.24-5.93l6.27-4c16.38-3.34,32.77-6.61,49.1-10.17,1.09-.24,2.56-2.87,2.35-4.14-.87-5.29-2.32-10.48-3.56-15.7-1.83-.52-3.78-1.73-5.46-1.44-10.79,1.9-21.55,4-32.28,6.27-8.92,1.88-17.89,3.69-26.66,6.15s-10.72,9.55-4.73,16.11a63.54,63.54,0,0,1,5.33,4.43c.79.81,1,2.18,1.5,3.3-8.64-1.24-11.5-4.36-11.77-12.85C39,157.91,41.67,154.82,50,152.93c13.1-3,26.13-6.27,39.22-9.3,8.19-1.9,16.39-4.8,24.65-5.08,19.09-.64,37.29-5.79,55.79-9.34,19.76-3.79,39.43-8,59.12-12.14,20.47-4.29,40.93-8.63,61.34-13.19a8.68,8.68,0,0,0,4.84-4C297.86,94.66,300.61,93.31,306.31,95.16Z" transform="translate(-39.2 15.93)"/>
    <path class="cls-3" d="M129.13,191c1.37,5.39,2.71,10.78,4.11,16.16.66,2.57-.17,4.09-2.81,4.72s-5.4,1.45-8.1,2.19c-6.33,1.25-12.62,2.69-19,3.68-3.28.51-6.69.21-10,.28-.43-3.34-.64-6.72-1.34-10-.79-3.62.48-5.59,4.08-5.91,2.47-.22,4.92-.77,6.32-1l-1-5.16-.09.14c-.1-2.23.56-5-.54-6.53-.9-1.24-4-1.6-5.93-1.26-5.49,1-10.89,2.48-16.32,3.78l-6.21-3.06c-2.68-1.14-4.51-5.4-8.44-2.35,5,3.13,5.3,5,2.34,10.39-2,3.58-3.57,7.34-5.34,11l1,.48L58.22,210c-1.64.15-3.56.7-2.31-2.28.27-.66-.42-1.71-.67-2.58,2.44-6.11,1.59-10.16-3-14.09l-1-3L61.37,184c2.43-3.68,4.7-6.07,10.3-5.5,5.24.53,10.79-2.34,16.25-3.49,1.88-.4,4.12-.74,5.8-.09,6.69,2.59,13.22,5.58,19.8,8.42a21.33,21.33,0,0,1,1.84,4.32c1.06,5.48-1.8,9.51-5.28,13.24l-1.78,2.12c-3.87,4.56-3.5,9.08,1.16,9.77,3.72.55,7.68-.54,11.53-.9l-.21-2.07c-1.68.14-3.49.73-5,.28-1.25-.36-2.13-1.95-3.17-3l7.72-3.5L113.25,201c4.28-4.53,8.38-9.34,15.23-9.93Z" transform="translate(-39.2 15.93)"/>
    <path class="cls-4" d="M300.31,126.07q-1.76-8.37-3.53-16.73a19,19,0,0,1-.67-2.2c-.59-7.67-.37-7.91,7.5-9.09a13.1,13.1,0,0,0,2.69-1c1.34,2,3.07,3.82,3.87,6,.64,1.73.13,3.87.13,7.12l30.13-6.27a10.65,10.65,0,0,1,3.39-.63c.95.13,1.8,1,2.69,1.57l-2.65,2.25,9.29-1,.13.74L311.74,116c-1.31,4.18,4.57,8.76-2.55,12.13l1-6.52-8.17,1,3.72,5.49-4.36.91C301,128.08,300.65,127.08,300.31,126.07Zm-1.86-21.71c2.52,2,4.89,4.07,7.61.86.57-.66.24-3.25-.31-3.49C302.81,100.44,300,100.56,298.45,104.36ZM308.94,113l-.25-1.92c-1.92.36-4,.45-5.7,1.22-.64.28-1,2.29-.7,3.32.34,1.27,1.45,2.33,2.24,3.49l1.15-.9-2.54-4.45Z" transform="translate(-39.2 15.93)"/>
    <path class="cls-3" d="M72.27,189.08l6.21,3.06c-6.38,3.4-6.91,6-2.34,12.8,4.68-2.31,6.31-.35,6.4,4.6.06,3.24,1.37,6.44,1.77,9.7.15,1.22-.7,2.57-1.09,3.86l-4.36,1c-.1-1.19-.2-2.38-.31-3.76l3.19.9c-2.67-5.68-2.67-5.68-7.25-6.92-6.37-1.71-9.22-5.7-7.81-12,.53-2.4,2.72-4.38,3.75-6.72A44.79,44.79,0,0,0,72.27,189.08Z" transform="translate(-39.2 15.93)"/>
    <path class="cls-5" d="M463.27,115.16c-4,.45-8,1.64-11.83,1-1.93-.3-4.53-3.76-4.64-5.91-.09-1.86,2.6-5,4.61-5.49,1.65-.44,4.09,2.06,6.18,3.25l-6.51,2.12c.62,2.52,3,3.85,6.82,2.83,4-1.09,7.62-7.75,6.52-12.13-1.21-4.83-3.26-5.93-8.52-4.4,2.07,1.51,5.62,2.91,5.65,4.38.05,2.38-2.22,4.8-3.51,7.21l.53-5.84-1.05.82c-1.61-2-4.12-3.77-4.61-6-.68-3.08,2.23-4.18,5-4.76,4.27-.9,7.41,1.08,8.72,4.67,1,2.76.57,6.11.49,9.19a33.2,33.2,0,0,1-1,5.33Z" transform="translate(-39.2 15.93)"/>
    <path class="cls-2" d="M83.22,223.1c.39-1.29,1.24-2.64,1.09-3.86-.4-3.26-1.71-6.46-1.77-9.7-.09-4.95-1.72-6.91-6.4-4.6-4.57-6.84-4-9.4,2.34-12.8,5.43-1.3,10.83-2.82,16.32-3.78,1.93-.34,5,0,5.93,1.26,1.1,1.51.44,4.3.54,6.53-.24-5.36-1.21-6.27-6.27-5A110.73,110.73,0,0,0,79.87,196c-1.67.7-2.48,3.43-4.32,6.18a44.81,44.81,0,0,0,5.31,0c2.66-.44,4.07.63,4.53,3.23.76,4.24,1.43,8.5,2.39,12.7S87.19,223.63,83.22,223.1Z" transform="translate(-39.2 15.93)"/>
    <path class="cls-6" d="M72.27,189.08a44.79,44.79,0,0,1-1.84,6.56c-1,2.34-3.22,4.32-3.75,6.72-1.41,6.26,1.44,10.25,7.81,12,4.58,1.24,4.58,1.24,7.25,6.92l-3.19-.9c.11,1.38.21,2.57.31,3.76l-6.54-1,0,.06c0-5.57-5.56-11.66-11.07-12.17L58.22,210l3.6-1.41-1-.48c1.77-3.68,3.39-7.44,5.34-11,3-5.42,2.65-7.26-2.34-10.39C67.76,183.68,69.59,187.94,72.27,189.08Z" transform="translate(-39.2 15.93)"/>
    <path class="cls-7" d="M58.22,210l3.06.93-3.91,1.58,1.27.7L57.12,218a3.08,3.08,0,0,0-.74,0c-.86-2.45-1.62-5-2.64-7.34-.57-1.31-1.32-3.1-2.43-3.52-6-2.27-5.55-7.55-6-12.34-.41-4.2,1.7-6.5,6-6.76l1,3,3,14.09c.25.87.94,1.92.67,2.58C54.66,210.73,56.58,210.18,58.22,210Z" transform="translate(-39.2 15.93)"/>
    <path class="cls-8" d="M56.38,218.05a3.08,3.08,0,0,1,.74,0l12.38,1.5,2.85,3.61,0-.06c.3.91.59,1.81.89,2.74-5.28,2.05-10.46,6.47-14.73-.23Z" transform="translate(-39.2 15.93)"/>
    <path class="cls-9" d="M385.22,42.75a101.49,101.49,0,0,1,2.84,10c1.07,5.92,0,11.42-5.37,15-4.08,2.72-8.47,2.18-12.71-.13-3.15-1.71-4-4.07-2.59-7.53,1.13,2.11,1.73,4.54,3.28,5.74a9.44,9.44,0,0,0,6.46,2c3.48-.55,7.42-1.53,7.44-6.47,3.53-5.7.1-10.36-2.27-15.17.14-2,.27-4.06.41-6.09Z" transform="translate(-39.2 15.93)"/>
    <path class="cls-10" d="M446.51,125c.32-1.43.64-2.86,1-4.3,2,7.83-2.72,20.4-10,24.13-12.06,6.22-18.65,7.29-27.1-.86l-.45-2.93,4.29.31c-.11.85-.23,1.7-.5,3.78,3.64.63,7.87,2.37,11.8,1.86C438.7,145.32,444.24,139.09,446.51,125Z" transform="translate(-39.2 15.93)"/>
    <path class="cls-2" d="M101.36,196l1,5.16c-1.4.22-3.85.77-6.32,1-3.6.32-4.87,2.29-4.08,5.91.7,3.28.91,6.66,1.34,10a3.63,3.63,0,0,0-.87,0c-.55-2.42-1.09-4.85-1.64-7.27C88.46,200.48,90.62,197.47,101.36,196Z" transform="translate(-39.2 15.93)"/>
    <path class="cls-11" d="M51,178.93c-.48-1.12-.71-2.49-1.5-3.3a63.54,63.54,0,0,0-5.33-4.43l.41-.37c4.24,2.63,8.6,4.2,13.55,1.88a37.09,37.09,0,0,1,4.21-1.4c1,.94,2,1.88,3.07,2.81l-6.27,4Z" transform="translate(-39.2 15.93)"/>
    <path class="cls-12" d="M92.43,218a3.63,3.63,0,0,1,.87,0c3.35-.07,6.76.23,10-.28,6.37-1,12.66-2.43,19-3.68l3.18,1.08c-8.31,1.87-16.6,3.9-25,5.51C97.64,221.26,93.83,222.84,92.43,218Z" transform="translate(-39.2 15.93)"/>
    <path class="cls-13" d="M382.71,40.1c-.14,2-.27,4.06-.41,6.09l-5-3.68-.12-6.26Z" transform="translate(-39.2 15.93)"/>
    <path class="cls-14" d="M131.3,170.06l11.53,1.1c-.71,1.12-1.29,2.48-1.59,2.42-4-.78-8-1.77-12-2.7Z" transform="translate(-39.2 15.93)"/>
    <path class="cls-15" d="M385.35,124c5.31-4.91,10.35-1.49,15.44.49l.61-1.24a75.81,75.81,0,0,0-7.77-3.23c-4-1.19-8-2-12.68-3.12,9.59-10.6,16.37-14.6,21.56-7.88,2.56-3.15,5.75-2.72,11.46,1.72-3.17,2.35-5.19,5.14-3.15,9.24.23.47.15,1.54-.18,1.76-6.1,4.22-6,10.91-6.18,17-.27,9-12.16,15.52-19,14.53-11.17-1.61-20.83-5.75-26.8-16-1.33-2.3-2.86-4.66-3.41-7.19-1-4.52,1.4-6.36,6.27-5.85-.55,10.67,4.24,18.37,14.27,21.37,5.64,1.69,12,1.47,18,1.27,5.17-.16,6-5,6.29-8.83a7.89,7.89,0,0,0-5.18-8.25c-1.61-.63-3.24-1.22-4.57-1.72-.84,2.39-1.47,4.16-2.09,5.93l-5.39-3c1.83-2.14,3.09-3.61,4.34-5.09,3,.17,6.17-.17,9,.64s5.39,2.81,8.06,4.28l-1.18,1.49c-1.56-2.1-3-4.32-4.71-6.26C394.65,121.89,389.78,124.17,385.35,124Z" transform="translate(-39.2 15.93)"/>
    <path class="cls-3" d="M377.29,42.51l5,3.68c2.37,4.81,5.8,9.47,2.27,15.17-1.84,1.38-3.51,3.18-5.57,4a7.52,7.52,0,0,1-5.56-.06A6.36,6.36,0,0,1,370.67,61c-.16-1,1.69-3.38,2.32-3.27,1.85.33,3.54,1.58,6.23,2.94V54.11c-1.79-6.77-6.59-9.23-14.15-7.26-10.11,2.38-15,9.89-12.24,19.89a53.2,53.2,0,0,0,6.75,15.44c1.3,1.93,5.83,1.67,9.27,1.71-4.52-3.37-4.13-7.66-2.67-11.5.32-.87,4.6-.23,7.06-.29l-4.7,4.56,6.81,2.4c4.49,1.28,8.94,2.82,13.5,3.77,4.9,1,9.93,1.5,14.9,2.22l.18,1.34-7.56,2.71-3.45.1c-8.52-2.67-17.23-2.77-26-2a9,9,0,0,0-4.38,1.22l6.16,3.64c-8.2,2.31-15.4-3-16.5-9.73-.95-5.84-3.22-11.46-4.24-17.3-1.35-7.76,3.89-17.54,11-20.61C364.74,41.9,370.86,40.12,377.29,42.51Z" transform="translate(-39.2 15.93)"/>
    <path class="cls-3" d="M446.51,125c-2.27,14.06-7.81,20.29-20.95,22-3.93.51-8.16-1.23-11.8-1.86.27-2.08.39-2.93.5-3.78-1.25-3-3.83-6.28-3.42-9.08.55-3.8,3.69-6.87,8.66-6.43l-.64-1.75-10.78,3.63c3.62-5.9,9.65-7.06,15.22-2.68-.35,1.05-1,2.11-1,3.15a44,44,0,0,0,.93,5.74c-.6.57-1.12,1.51-1.81,1.65-1.46.31-3.63.82-4.35.09s-.35-2.9-.49-5.14c-.5,0-2.22-.34-2.41.07a8.29,8.29,0,0,0-1.14,4.66c.84,4.66,6.34,8,11.06,7,7.52-1.66,13-5.85,15.23-13.43,2.37-8.23-.39-15.37-5.51-21.78-1.74-2.18-3.35-4.71-5.6-6.21-3.69-2.47-7.86-4.24-11.93-6.36,2.93-5.18,7.76-2.62,12.39-1.21l-.13-.09,11.08,10.71c1.51-2.38,2.81-4.44,4-6.29A39.62,39.62,0,0,1,439,96.18c-.25-.1,0-1.51.07-2.32l4.25-1.8c.17,2.68,1.31,4,4.17,3.06,2.71,2.18,3.41,5.07,1.15,7.57-1.76,2-2.71,6.53-8.34,4.27,1,2.93,2.1,5.86,3.12,8.81S445.48,121.94,446.51,125Z" transform="translate(-39.2 15.93)"/>
    <path class="cls-16" d="M447.48,95.12c-2.86,1-4-.38-4.17-3.06l6-4.85,12.51-6-.5-1.64c-7.3-3.92-15.54-4.92-23.41-4.25-11.51,1-22.93,3.47-34.26,5.88-3.58.76-6.06.88-7.46-1.66,3.18-2.41,6.22-4.76,9.3-7,5.16-3.81-1.91-7.22-.59-11.06-.54,1.08-1.07,2.17-1.6,3.25h-1c-.1-1.2-.46-3.39-.24-3.45A27.63,27.63,0,0,1,409.43,60c1.27,0,2.53,1.29,3.8,2l-.11-.12-2.78,12.76c19.55-5.86,40.27-7.86,60.62,4.07C464.34,87.43,455.47,90.63,447.48,95.12Z" transform="translate(-39.2 15.93)"/>
    <path class="cls-17" d="M401.26,40.08c12.22-5.09,22.2.08,24,14.42a25,25,0,0,1,.17,5c-.53,6.38-2.47,11.08-10,10.41-.79-2.82-1.52-5.43-2.26-8l.11.11-4.48-5.7c2.66-8.51,2.48-8.9-6.4-14.27-.54-.33-.66-1.34-1-2Z" transform="translate(-39.2 15.93)"/>
    <path class="cls-3" d="M367.39,117.86l11.95,10.52c-.84,5.38.29,7.64,5.47,9.7s7.31-1.92,9.88-5c4,3.67,2.4,9.63-3.26,11.74-7.48,2.79-17.95-.76-23.08-7.18a17.63,17.63,0,0,1-3.89-14.18C364.77,121.36,366.5,119.49,367.39,117.86Z" transform="translate(-39.2 15.93)"/>
    <path class="cls-15" d="M411.31,29.05c10.18,1.15,17.33,7.12,21.49,15.79,2.07,4.31,1.48,10,1.58,15.09.07,3.57-1.84,6-4.91,5.71,0-5.13.42-10.26-.1-15.29C428.45,41.28,415.07,30,404.06,37c-1.13.72-1.87,2-2.8,3.09l.12-.13-5.18,6.79,7.11,1.32c0,1.64,0,3.28,0,4.92-7.38,3.75-12-3.33-9.8-9.42,1.08-2.93,2.62-5.69,3.95-8.52,3.48-1.34,7-2.62,10.42-4A31.13,31.13,0,0,0,411.31,29.05Z" transform="translate(-39.2 15.93)"/>
    <path class="cls-5" d="M422.32,121l-10.12-4.82c.54-1,1.08-2,1.83-3.45l4.24,3.37c1.81-3,.73-4.65-1.65-7-5-5.08-11.27-4.07-17.24-4.9-6.16-.87-12.27-2.1-18.49-3.18,3.38-4.54,4.51-4.7,9.65-4.1,6.73.79,13.56.71,20.27,1.61,3.84.52,7.51,2.26,11.26,3.45l-.49,1.6-6.7-1.78c4.93,3.84,9.87,7.35,10.41,14.21Z" transform="translate(-39.2 15.93)"/>
    <path class="cls-15" d="M375.22,73c2.7-.76,6.08-.75,8-2.43,3.73-3.32,6.64-7.58,10.43-12.1,4.44.87,6.59,6.05,9.46,10.37.39.59-.35,2.69-1.15,3.23C394.52,77,387.3,82.82,377.41,79,373.45,78.18,373.82,75.78,375.22,73Z" transform="translate(-39.2 15.93)"/>
    <path class="cls-18" d="M375.15,106.21h11.78c-3.76,5.14-6.55,8.58-8.91,12.31-1.91,3-.18,3.79,2.47,3.47.28-1.39.51-2.59.75-3.79.82.37,2.3.68,2.33,1.12.12,1.3.1,3.42-.65,3.84-1.49.85-4.1,1.62-5.15.88a10.48,10.48,0,0,1-3.74-5.67c-.42-1.71.69-3.8,1-5.35-6.43,2.45-12.84,5.21-19.46,7.32s-13.6,3.06-20.49-1c14.78-.6,28.21-4.78,40.15-13.28Z" transform="translate(-39.2 15.93)"/>
    <path class="cls-16" d="M422.32,121l3-5c-.29-3.5-.59-7-1-11.36,2-1.22,4.32-.28,6.5,2.87,3.73,5.38,7.51,10.49,5.51,17.75-1.86,6.78-5.87,11-13.56,13.19l1.67-2.29c3.16-2.9,3.88-6.24,1.85-10.09Z" transform="translate(-39.2 15.93)"/>
    <path class="cls-5" d="M457.3,60.89c1.91-3.35.51-7.16-4.41-9.85-3.86-2.1-7.48-.79-9.74,4a9.49,9.49,0,0,1,1.24-.62l4.53-1.21c.18.85.75,2.25.46,2.45-1.59,1.14-4.13,3.22-5,2.71a13.51,13.51,0,0,1-5.49-6.09c-.42-1.06,2-3.86,3.69-5,3.95-2.72,13.22-.37,16.27,3.73,4,5.35,4,12.54-.73,16.19-1.76,1.38-5.15,1.35-7.59.88-1.19-.23-2.67-3-2.61-4.52s1.66-4.18,2.91-4.39C452.78,58.84,455,60.18,457.3,60.89Z" transform="translate(-39.2 15.93)"/>
    <path class="cls-17" d="M428.68,93.29l-6.74-5c3.69-8.28,7.9-10.64,17-9.48L452,80.55c.18.72.35,1.43.53,2.15l-24,10.5Z" transform="translate(-39.2 15.93)"/>
    <path class="cls-18" d="M377.43,53.44l-11,1.32c-3.46,4.29-4.14,9.38-1,13.31-1.61,4.76-2.85,8.45-4,11.93-4.61-3.88-6.8-11.64-4.93-19.84,1.34-5.91,4.16-10.79,10.75-12.22C372,47.17,375.25,49.33,377.43,53.44Z" transform="translate(-39.2 15.93)"/>
    <path class="cls-19" d="M336.65,76.11c-3.67,2.71-6.55.65-7.47-2-.62-1.82.93-5.77,2.61-6.63,2-1,5.73-.6,7.68.72,5.26,3.52,5.16,8.72.47,14.68-3.49,4.43-10.09,5.64-14.12,2.37-.93-.75-1.15-2.36-1.7-3.58,1.91-.86,4.08-2.75,5.68-2.35C333.15,80.12,335.22,79.48,336.65,76.11Z" transform="translate(-39.2 15.93)"/>
    <path class="cls-18" d="M375.27,106.11l-3.06-.89-11.13,5.32c2-10.19,12.88-19.15,24.08-19.11l-11.58,9.19,5.71,1.8-4.13,3.79Z" transform="translate(-39.2 15.93)"/>
    <path class="cls-4" d="M349.26,91.26c3.35-1.38,5.77-.4,8.17,2.36,1.62,1.87,4.23,2.88,6.79,4.54-3.55,6.32-5.53,13.51-12,17.32l-1.12-.79,1.23-2.59,0-1.15c3.69-3.12,4.75-6.48,1.16-10.45-2.26-2.5-4.38-5.14-6.54-7.72a.53.53,0,0,1-.09-.45c0-.13.24-.2.37-.3Z" transform="translate(-39.2 15.93)"/>
    <path class="cls-20" d="M342.35,128.46l-9.25,5.3c-1.89-4.23-.36-7.25,4.68-7.84,7-.8,11.49,3.37,15.56,8,.94,1,.88,4.53-.06,5.36-1.82,1.59-4.53,2.4-7,2.9-1.22.24-2.71-.92-4.78-1.71,1.17-1.41,2.38-3.45,2.81-3.29,1.57.56,2.88,1.85,5,3.35-.14-2.93.49-5.11-3.6-5.57-3.65-.41-4.58-2.89-2.51-4.94Z" transform="translate(-39.2 15.93)"/>
    <path class="cls-18" d="M424.45,82.42c-5.22,4.49-10.13,9.46-15.84,13.2-2.07,1.35-6.07-.25-10.26-.6C406.11,87.58,413.14,81.07,424.45,82.42Z" transform="translate(-39.2 15.93)"/>
    <path class="cls-21" d="M347.31,98.52c-15.62,6.73-27.71,7-34.31,1.26,5-2,9.27-3.8,14.75-2.34,4.54,1.2,9.46,1,14.22,1.32A47.92,47.92,0,0,0,347.31,98.52Z" transform="translate(-39.2 15.93)"/>
    <path class="cls-22" d="M352.26,111l0,1.15-33.07,11.1-1.11-2c3.65-2.37,7-5.87,11-6.87C336.65,112.43,344.53,112,352.26,111Z" transform="translate(-39.2 15.93)"/>
    <path class="cls-4" d="M349.26,91.26l-2.1.77c-2.45.76-4.94,1.44-7.36,2.3-3.24,1.14-6.43,2.42-10.24,3.87.7-8.42,10.09-12.09,20.26-9.36C349.63,89.64,349.45,90.45,349.26,91.26Z" transform="translate(-39.2 15.93)"/>
    <path class="cls-23" d="M458,108.07c1.29-2.41,3.56-4.83,3.51-7.21,0-1.47-3.58-2.87-5.65-4.38,5.26-1.53,7.31-.43,8.52,4.4,1.1,4.38-2.48,11-6.52,12.13-3.8,1-6.2-.31-6.82-2.83l6.51-2.12Z" transform="translate(-39.2 15.93)"/>
    <path class="cls-5" d="M438.25,56.64c3.22,4.48,5.7,8,8.19,11.43l-.92,1.14-10.41-1.49C436.12,64.18,437,61.23,438.25,56.64Z" transform="translate(-39.2 15.93)"/>
    <path class="cls-24" d="M403.29,53c0-1.64,0-3.28,0-4.92.09-1.25.18-2.51.29-4,4.36,1.22,4.44,4.84,3.8,7.87-1.17,5.47-4.18,6.85-9.36,5.58C399.63,56.11,401.46,54.55,403.29,53Z" transform="translate(-39.2 15.93)"/>
    <path class="cls-25" d="M392.92,89.2l3.45-.1-.21,3.51.67,1.48-11.34.65c-.19-.69-.39-1.38-.59-2.07Z" transform="translate(-39.2 15.93)"/>
    <path class="cls-26" d="M411.31,29.05a31.13,31.13,0,0,1-3.45,2c-3.45,1.41-6.94,2.69-10.42,4,.34-1.19.46-3.26,1.06-3.42C402.71,30.54,407,29.86,411.31,29.05Z" transform="translate(-39.2 15.93)"/>
    <path class="cls-27" d="M426.31,126.07c2,3.85,1.31,7.19-1.85,10.09l-1.22-2.2a44,44,0,0,1-.93-5.74c-.05-1,.64-2.1,1-3.15Z" transform="translate(-39.2 15.93)"/>
    <path class="cls-12" d="M385.35,124c4.43.22,9.3-2.06,13,2.1,1.73,1.94,3.15,4.16,4.71,6.26l1.18-1.49c-2.67-1.47-5.2-3.45-8.06-4.28s-6-.47-9-.64Z" transform="translate(-39.2 15.93)"/>
    <path class="cls-28" d="M449.31,87.21l-6,4.85-4.25,1.8c.66-1.34,1-3.35,2.05-3.89C443.66,88.68,446.56,88.08,449.31,87.21Z" transform="translate(-39.2 15.93)"/>
    <path class="cls-29" d="M377.43,53.44c-2.18-4.11-5.4-6.27-10.21-5.5l-2.15-1.09c7.56-2,12.36.49,14.15,7.26Z" transform="translate(-39.2 15.93)"/>
    <path class="cls-20" d="M345.44,76.73c1.3,2.23,2.18,3.76,3.34,5.76l-7,1.8Z" transform="translate(-39.2 15.93)"/>
    <path class="cls-30" d="M375.22,73c-1.4,2.77-1.77,5.17,2.19,6l-2.06.07-6.81-2.4,4.7-4.56Z" transform="translate(-39.2 15.93)"/>
    <path class="cls-4" d="M231.23,136.09c.28-1,.25-2.48.92-3,1.1-.77,2.65-.89,4-1.28L249,129.32l-.46-1.94-14.41,3.53c-3.37,1.4-7.21,1.06-9.71,5.3-1.23,2.08-6.38,1.84-9.75,2.65l.24-1.43c-1.49-.29-3.09-1.07-4.46-.79-10.55,2.18-21.07,4.53-31.59,6.89-11.17,2.5-22.32,5.07-33.48,7.62l-1-.91,7.74-2.12-.44-1.55L136.57,151l-14.3,3.07c-3.09-2.85-2.61-4.86,2-6,9-2.22,18.14-4.06,27.22-6.07,2.47-.55,4.92-1.13,7.39-1.69l-.38-1.77-37.66,6.79-.37-2.11L183,131.9l4.39-3.66c4.23-.37,8.48-.56,12.66-1.21,1.66-.25,3.15-1.51,5-2.44l3.82,1.83-3.64,1.76.34,1,37.91-11-2.34,3c17.38-6.86,35.52-5.93,53-9.72.12.56.25,1.11.37,1.66l-11.93,3.49L272.26,118l-15.6,2.16.33,2.36c2.29-.2,4.58-.48,6.87-.59,2-.1,4,0,6.06,0L250.39,127c.16.75.33,1.51.5,2.27l26.87-5.42.51,1.43c-1.59.69-3.11,1.72-4.77,2-12.37,2.28-24.77,4.38-37.13,6.67-1.82.34-3.49,1.41-5.23,2.15Zm-3.9-9c-5.07.69-10.74-.77-15.76,4.19l16-1.45c11.65-1.6,20.21-4.37,21.94-7.86Z" transform="translate(-39.2 15.93)"/>
    <path class="cls-16" d="M65.4,174.12c-1-.93-2.05-1.87-3.07-2.81l3.06-1.24c-3.51-.17-6.76.78-10,.6s-6.44-1.45-10.11-2.36l2.23-2.11a42.82,42.82,0,0,0,5.32-1.07c8.55-2.88,17.08-5.85,25.59-8.84,3.08-1.08,7.14-1,7.46-5.76,0-.26,1.47-.43,2.25-.65,3.56-.62,7.15-1.08,10.66-1.91,4.88-1.16,9.69-2.59,14.53-3.91l-.08.05c1.24,5.22,2.69,10.41,3.56,15.7.21,1.27-1.26,3.9-2.35,4.14C98.17,167.51,81.78,170.78,65.4,174.12Z" transform="translate(-39.2 15.93)"/>
    <path class="cls-5" d="M129.13,191l-.65.07-11.42-.55,6.1-4.64-9.66-2.5,3.94-4.41-5.65-.65-.12-1.08,18.69-2.3-1.48,2.89L144.67,176c1.17,2.85,2.31,5.65,3.71,9.07Z" transform="translate(-39.2 15.93)"/>
    <path class="cls-11" d="M44.16,171.2c-6-6.56-4.13-13.62,4.73-16.11s17.74-4.27,26.66-6.15c10.73-2.25,21.49-4.37,32.28-6.27,1.68-.29,3.63.92,5.46,1.44l.08-.05L87.25,149c-12.3,2.61-24.65,5-36.88,7.95-4.33,1-6.08,4.75-6.14,9.14l.34,4.75Z" transform="translate(-39.2 15.93)"/>
    <path class="cls-31" d="M113.5,183.42l9.66,2.5-6.1,4.64,11.42.55c-6.85.59-10.95,5.4-15.23,9.93l-3.17-.11c3.48-3.73,6.34-7.76,5.28-13.24a21.33,21.33,0,0,0-1.84-4.32Z" transform="translate(-39.2 15.93)"/>
    <path class="cls-32" d="M269.92,121.89c-2,0-4-.07-6.06,0-2.29.11-4.58.39-6.87.59l-.33-2.36,15.6-2.16C274.86,121.31,272.23,121.5,269.92,121.89Z" transform="translate(-39.2 15.93)"/>
    <path class="cls-33" d="M122.27,154.11l14.3-3.07,7.83-.8,1,.91c-6.15,1.57-12.26,3.31-18.47,4.6C125.53,156,123.82,154.7,122.27,154.11Z" transform="translate(-39.2 15.93)"/>
    <path class="cls-13" d="M234.13,130.91l14.41-3.53.46,1.94-12.84,2.54Z" transform="translate(-39.2 15.93)"/>
    <path class="cls-34" d="M187.36,128.24,183,131.9h-8.14l-.14-.68Z" transform="translate(-39.2 15.93)"/>
    <path class="cls-35" d="M112.62,207.13c1,1.05,1.92,2.64,3.17,3,1.5.45,3.31-.14,5-.28l.21,2.07c-3.85.36-7.81,1.45-11.53.9-4.66-.69-5-5.21-1.16-9.77Z" transform="translate(-39.2 15.93)"/>
    <path class="cls-36" d="M112.62,207.13l-4.32-4.08,1.78-2.12,3.17.11,7.09,2.59Z" transform="translate(-39.2 15.93)"/>
    <path class="cls-37" d="M55.24,205.17l-3-14.09C56.83,195,57.68,199.06,55.24,205.17Z" transform="translate(-39.2 15.93)"/>
    <path class="cls-38" d="M298.45,104.36c1.57-3.8,4.36-3.92,7.3-2.63.55.24.88,2.83.31,3.49C303.34,108.43,301,106.36,298.45,104.36Z" transform="translate(-39.2 15.93)"/>
    <path class="cls-39" d="M308.94,113l-5.8.76,2.54,4.45-1.15.9c-.79-1.16-1.9-2.22-2.24-3.49-.28-1,.06-3,.7-3.32,1.74-.77,3.78-.86,5.7-1.22Z" transform="translate(-39.2 15.93)"/>
    <path class="cls-40" d="M72.35,223.13l-2.85-3.61L57.12,218l1.52-4.78-1.27-.7L61.28,211C66.79,211.47,72.32,217.56,72.35,223.13Z" transform="translate(-39.2 15.93)"/>
    <path class="cls-41" d="M44.57,170.83l-.34-4.75,3.33.12-2.23,2.11c3.67.91,6.86,2.19,10.11,2.36s6.44-.77,10-.6l-3.06,1.24a37.09,37.09,0,0,0-4.21,1.4C53.17,175,48.81,173.46,44.57,170.83Z" transform="translate(-39.2 15.93)"/>
    <path class="cls-29" d="M227.33,127.08,249.47,122c-1.73,3.49-10.29,6.26-21.94,7.86C227.46,128.91,227.39,128,227.33,127.08Z" transform="translate(-39.2 15.93)"/>
    <path class="cls-42" d="M227.33,127.08c.06.92.13,1.83.2,2.74l-16,1.45C216.59,126.31,222.26,127.77,227.33,127.08Z" transform="translate(-39.2 15.93)"/>
    <path class="cls-43" d="M144.4,150.24l-7.83.8,15.13-4.47.44,1.55Z" transform="translate(-39.2 15.93)"/>
    <path class="cls-44" d="M47.56,166.2l-3.33-.12c.06-4.39,1.81-8.11,6.14-9.14C62.6,154,75,151.6,87.25,149l.93.89c-.78.22-2.23.39-2.25.65-.32,4.8-4.38,4.68-7.46,5.76-8.51,3-17,6-25.59,8.84A42.82,42.82,0,0,1,47.56,166.2Z" transform="translate(-39.2 15.93)"/>
    <path class="cls-13" d="M88.18,149.88l-.93-.89,26.12-4.93c-4.84,1.32-9.65,2.75-14.53,3.91C95.33,148.8,91.74,149.26,88.18,149.88Z" transform="translate(-39.2 15.93)"/>
    <text class="cls-45" transform="translate(134.33 234.41)">EN<tspan class="cls-46" x="48.82" y="0">I</tspan><tspan class="cls-47" x="62.06" y="0">GMA</tspan></text>
  </g>
</svg>
