<?xml version="1.0" encoding="utf-8"?>
<!-- Generator: Adobe Illustrator 22.1.0, SVG Export Plug-In . SVG Version: 6.00 Build 0)  -->
<svg version="1.1" id="Calque_2_1_" xmlns="http://www.w3.org/2000/svg" xmlns:xlink="http://www.w3.org/1999/xlink" x="0px"
	 y="0px" viewBox="0 0 507.1 245.1" style="enable-background:new 0 0 507.1 245.1;" xml:space="preserve">
<style type="text/css">
	.st0{fill:#FBFBFB;}
	.st1{fill:#373737;}
	.st2{fill:#F7F7F7;}
	.st3{fill:#F5F5F5;}
	.st4{fill:#F2F2F2;}
	.st5{fill:#3E3E3E;}
	.st6{fill:#232323;}
	.st7{fill:#474747;}
	.st8{fill:#DCDCDC;}
	.st9{fill:#565656;}
	.st10{fill:#E8E8E8;}
	.st11{fill:#5F5F5F;}
	.st12{fill:#707070;}
	.st13{fill:#969696;}
	.st14{fill:#F8F8F8;}
	.st15{fill:#F9F9F9;}
	.st16{fill:#FAFAFA;}
	.st17{fill:#F6F6F6;}
	.st18{fill:#EDEDED;}
	.st19{fill:#EEEEEE;}
	.st20{fill:#EFEFEF;}
	.st21{fill:#F0F0F0;}
	.st22{fill:#3B3B3B;}
	.st23{fill:#B8B8B8;}
	.st24{fill:#E4E4E4;}
	.st25{fill:#CECECE;}
	.st26{fill:#9B9B9B;}
	.st27{fill:#989898;}
	.st28{fill:#727272;}
	.st29{fill:#696969;}
	.st30{fill:#363636;}
	.st31{fill:#646464;}
	.st32{fill:#BEBEBE;}
	.st33{fill:#CACACA;}
	.st34{fill:#333333;}
	.st35{fill:#8A8A8A;}
	.st36{fill:#C5C5C5;}
	.st37{fill:#8B8B8B;}
	.st38{fill:#7C7C7C;}
	.st39{fill:#D0D0D0;}
	.st40{fill:#393939;}
	.st41{fill:#D2D2D2;}
	.st42{fill:#6D6D6D;}
	.st43{fill:#212121;}
	.st44{fill:#CBAB00;}
	.st45{font-family:'PlayfairDisplay-Regular';}
	.st46{font-size:36px;}
</style>
<title>logo_enigma</title>
<g id="logo_enigma">
	<path class="st0" d="M507.1,0L53.2,233.9c1.4,4.8,5.2,3.2,8.1,2.7c8.4-1.6,16.6-3.6,25-5.5c1.2-0.1,2.3-0.3,3.4-0.5
		c7.9-1.8,10-5.5,7.8-13.2c-0.9-3.3-1.8-6.5-2.7-9.7c4-1,7.1-1.8,10.4-2.5c3.8-0.8,7.2-2.9,6.7-6.7c-0.6-4.9-2.6-9.6-4.4-14.3
		c-0.3-0.6-2.8-0.8-4.2-0.5c-3.8,0.6-7.5,1.5-11.2,2.3l-2.1,0.8c-4.7,1-9.4,1.8-14.1,2.9c-3.6,0.8-6.9,0.8-10-3.9
		c3.2-1.3,6-2.6,8.9-3.7c2.9-1.1,6.3-1.2,8.2-3c4.8-4.7,10.8-5.6,16.8-6.7c26.5-5.3,53.1-10.2,79.6-15.6c4.3-0.9,8.4-3.1,12.5-4.7
		l-0.1,0.1c2.3,0.1,4.6,0.5,6.8,0.1c19.4-3.4,38.8-7,58.2-10.5c1.4-0.1,2.8,0,4.2,0.3c0.3,1,0.7,2,1,3l7.8,4.3
		c6.2-8.1,18-12.2,24.4-9c-0.8,0.8-1.5,1.7-2.1,2.7c-3.3,6.6-1.8,11.6,5,14.1c2.6,0.9,5.4,1.7,7.7,3.1c3.4,2.2,6.1,1.9,8.8-1
		c1-1.1,1.9-2.3,3.5-4.2c4.9,11.8,13.6,17.6,25,18c11.6,0.4,21.1-4.4,25.2-16.6l3.9,3.5c8.5,8.1,15,7.1,27.1,0.9
		c7.2-3.7,12-16.3,10-24.1l0.2-3.3c8.3,3,12.2,2.4,15.6-2.3l2.9-3.7c5.5-7.5,4.3-13.9-4.1-22c2.4-2,4.9-3.9,7.1-6.1s3.9-4.6,5.8-6.8
		L420.5,87c5-7,5.6-16.2,0.9-21c-2.5-2.6-6.2-5.3-9.5-5.7c-4.5-0.5-9.3,1.2-14.4,2c0.4,0.7,0.2,0.4,0.1,0.1
		c-4.6-11.9-13.1-19.1-25.9-20.4C360,41,353.2,48,348.7,57.8c-0.3,0.6-1.7,0.6-2.6,0.9l-2.5-2.7l-5.5-3.8c-3.6-0.2-7.3-1.3-10.7-0.5
		c-11.5,2.4-20.3,11.8-22.1,23.4c-1,6.1-1,6.1-6.5,4.3c-7.1-2.4-11.7,1.1-11.8,8.6c-0.2,2-0.9,3.9-2,5.6c-2,3.2-3.1,6.2,0,9.4
		c1,1.2,1.8,2.5,2.6,3.8c-7,2.4-12.5,8-20.4,4.3c-5.7-1.8-8.5-0.5-11.4,4.7c-1.1,1.9-2.8,3.3-4.8,4c-20.4,4.6-40.9,8.9-61.3,13.2
		c-19.7,4.1-39.4,8.4-59.1,12.1c-18.5,3.5-36.7,8.7-55.8,9.3c-8.3,0.3-16.5,3.2-24.6,5.1c-13.1,3-26.1,6.3-39.2,9.3
		c-8.3,1.9-11,5-10.8,13.1c0.3,8.5,3.1,11.6,11.8,12.9l8.1-0.8l2.2,5.9L12,204c-4.3,0.3-6.4,2.6-6,6.8c0.5,4.8,0,10.1,6,12.3
		c1.1,0.4,1.9,2.2,2.4,3.5c1,2.4,1.8,4.9,2.6,7.3l2.1,7.5c4.3,6.7,9.4,2.3,14.7,0.2c-0.3-0.9-0.6-1.8-0.9-2.7l6.5,1l4.4-1
		c4,0.5,5.5-1,4.6-5.1s-1.6-8.5-2.4-12.7c-0.5-2.6-1.9-3.7-4.5-3.2c-1.8,0.1-3.5,0.1-5.3,0c1.8-2.8,2.7-5.5,4.3-6.2
		c4.9-1.9,10-3.5,15.2-4.7c5.1-1.3,6-0.4,6.3,5l0.1-0.1c-10.7,1.5-12.9,4.5-10.6,14.8c0.6,2.4,1.1,4.8,1.6,7.2L507.1,0z"/>
	<path class="st1" d="M424.1,131.1c-3.4,4.7-7.3,5.3-15.6,2.3c-0.1,1.2-0.1,2.2-0.2,3.3c-0.3,1.4-0.6,2.9-1,4.3
		c-1-3.1-2-6.2-3.1-9.3c-1.1-3.1-2.1-5.9-3.1-8.8c5.6,2.3,6.6-2.3,8.3-4.3c2.3-2.5,1.6-5.4-1.1-7.6c8-4.5,16.9-7.7,23.5-16.5
		c-20.4-11.9-41.1-9.9-60.6-4.1c0.9-4.1,1.8-8.4,2.8-12.8c0.7,2.6,1.5,5.2,2.3,8c7.6,0.7,9.5-4,10-10.4c0.1-1.7,0.1-3.3-0.2-5
		c-1.8-14.3-11.8-19.5-24-14.4c0.9-1,1.7-2.4,2.8-3.1c11-7,24.4,4.3,25.3,13.4c0.5,5,0.1,10.2,0.1,15.3c3.1,0.3,5-2.1,4.9-5.7
		c-0.1-5.1,0.5-10.8-1.6-15.1c-4.2-8.7-11.3-14.6-21.5-15.8c-4.3,0.8-8.6,1.5-12.8,2.6c-0.6,0.2-0.7,2.2-1.1,3.4
		c-1.3,2.8-2.9,5.6-4,8.5c-2.2,6.1,2.4,13.2,9.8,9.4c-1.8,1.6-3.7,3.1-5.3,4.5c5.2,1.3,8.2-0.1,9.4-5.6c0.6-3,0.6-6.7-3.8-7.9
		c-0.1,1.5-0.2,2.8-0.3,4l-7.1-1.3l5.3-6.7c0.3,0.7,0.4,1.7,1,2c8.9,5.4,9.1,5.8,6.4,14.3l4.5,5.7c-1.3-0.7-2.5-2-3.8-2
		c-2.5,0.1-5,0.5-7.3,1.3c-0.2,0.1,0.1,2.3,0.2,3.4h1c0.5-1.1,1.1-2.2,1.6-3.3c-1.3,3.8,5.8,7.3,0.6,11.1c-3.1,2.3-6.1,4.6-9.3,7
		c1.4,2.5,3.9,2.4,7.5,1.7c11.3-2.4,22.8-4.9,34.3-5.9c7.9-0.7,16.1,0.3,23.4,4.3l0.5,1.6l-12.5,6c-2.8,0.9-5.6,1.5-8.2,2.8
		c-1.1,0.5-1.4,2.6-2,3.9c0,0.8-0.3,2.2-0.1,2.3c1.5,0.6,3,1.1,4.6,1.4c-1.2,1.8-2.5,3.9-4,6.3l-11.1-10.7l24-10.5
		c-0.2-0.7-0.4-1.4-0.5-2.2l-13.1-1.7c-9.1-1.2-13.3,1.2-17,9.5l6.7,5c-4.6-1.4-9.5-4-12.4,1.2c4.1,2.1,8.2,3.9,11.9,6.4
		c2.3,1.5,3.9,4,5.6,6.2c5.1,6.4,7.9,13.5,5.5,21.8c-2.2,7.6-7.7,11.8-15.2,13.4c-4.7,1.1-10.2-2.3-11.1-7c-0.1-1.6,0.3-3.3,1.1-4.7
		c0.2-0.4,1.9-0.1,2.4-0.1c0.1,2.2-0.3,4.3,0.5,5.1s2.9,0.2,4.4-0.1c0.7-0.1,1.2-1.1,1.8-1.6l1.2,2.2l-1.7,2.3
		c7.7-2.2,11.7-6.4,13.6-13.2c2-7.3-1.8-12.4-5.5-17.8c-2.2-3.2-4.5-4.1-6.5-2.9c0.4,4.4,0.7,7.9,1,11.4
		c-0.5-6.9-5.5-10.4-10.4-14.2l6.7,1.8l0.5-1.6c-3.8-1.2-7.4-2.9-11.3-3.4c-6.7-0.9-13.5-0.8-20.3-1.6c-5.1-0.6-6.3-0.4-9.6,4.1
		c6.2,1.1,12.3,2.3,18.5,3.2c6,0.8,12.2-0.2,17.2,4.9c2.4,2.4,3.5,4,1.6,7l-4.3-3.3c-0.8,1.4-1.3,2.4-1.8,3.4l10.1,4.8l4,5l-3-1
		c-5.6-4.4-11.6-3.2-15.2,2.7l10.8-3.6l0.6,1.8c-5-0.4-8.1,2.6-8.7,6.4c-0.4,2.8,2.2,6,3.4,9.1l-4.3-0.3l0.5,2.9l-3.9-3.5
		c-4.1,12.2-13.6,16.9-25.2,16.6c-11.3-0.3-20.1-6.2-25-18c-1.6,2-2.5,3.1-3.5,4.2c-2.6,2.9-5.4,3.1-8.8,1c-2.3-1.5-5.1-2.2-7.7-3.1
		c-6.9-2.4-8.3-7.5-5-14.1c0.6-1,1.3-1.9,2.1-2.7c-6.4-3.2-18.2,1-24.4,9l-7.8-4.3l4.4-0.9l-3.7-5.4l8.2-1l-1,6.5
		c7.1-3.4,1.2-8,2.5-12.1l41.5-9.3l-0.1-0.7l-9.3,1l2.6-2.3c-0.9-0.6-1.7-1.4-2.7-1.6c-1.2,0-2.3,0.2-3.4,0.6l-30.1,6.3
		c0-3.3,0.5-5.4-0.1-7.1c-0.8-2.2-2.5-4-3.9-6v-1.9c7.8,3.7,13.4-1.9,20.4-4.3c-0.7-1.3-1.6-2.6-2.5-3.8c-3.1-3.2-2-6.2,0-9.4
		c1.1-1.7,1.8-3.6,2-5.6c0-7.5,4.6-11,11.8-8.6c5.5,1.8,5.5,1.8,6.5-4.3c1.7-11.7,10.5-21,22.1-23.4c3.4-0.7,7.1,0.3,10.7,0.5
		l0.1,6.3c-6.4-2.4-12.5-0.6-18.4,1.9c-7.1,3.1-12.3,12.8-11,20.6c1,5.8,3.3,11.5,4.2,17.3c1.1,6.7,8.3,12,16.5,9.7l-6.2-3.6
		c1.3-0.8,2.8-1.2,4.4-1.2c8.8-0.8,17.5-0.7,26,2l-8,3.5c0.2,0.7,0.4,1.4,0.6,2.1l11.3-0.7l-0.7-1.5l0.2-3.5l7.6-2.7l-0.2-1.3
		c-5-0.7-10-1.2-14.9-2.2c-4.6-1-9-2.5-13.5-3.8l2.1-0.1c9.9,3.8,17.1-2,24.5-6.9c0.8-0.5,1.5-2.6,1.1-3.2c-2.9-4.3-5-9.5-9.5-10.4
		c-3.8,4.5-6.7,8.8-10.4,12.1c-1.9,1.7-5.3,1.7-8,2.4l-2-0.9c-2.5,0.1-6.7-0.6-7.1,0.3c-1.5,3.8-1.9,8.1,2.7,11.5
		c-3.4,0-8,0.2-9.3-1.7c-3.1-4.8-5.3-10-6.8-15.4c-2.8-10,2.1-17.5,12.2-19.9l2.1,1.1c-6.6,1.4-9.4,6.3-10.8,12.2
		c-1.9,8.2,0.3,16,4.9,19.8c1.2-3.5,2.4-7.2,4-11.9c-3.1-3.9-2.5-9,1-13.3l11-1.3l1.8,0.7v6.5c-2.7-1.4-4.4-2.6-6.2-2.9
		c-0.6-0.1-2.5,2.3-2.3,3.3c0.3,1.8,1.3,3.3,2.8,4.3c1.8,0.7,3.8,0.8,5.6,0.1c2.1-0.8,3.7-2.6,5.6-4c0,4.9-4,5.9-7.4,6.5
		c-2.3,0.2-4.6-0.6-6.5-2c-1.5-1.2-2.1-3.6-3.3-5.7c-1.4,3.5-0.6,5.8,2.6,7.5c4.2,2.3,8.6,2.8,12.7,0.1c5.3-3.6,6.4-9,5.4-15
		c-0.8-3.4-1.7-6.7-2.8-10c0.9-0.3,2.4-0.3,2.6-0.9c4.6-9.8,11.3-16.7,22.9-15.6c12.8,1.2,21.3,8.4,25.9,20.3
		c0.1,0.3,0.3,0.6-0.1-0.1c5.1-0.8,9.9-2.5,14.4-2c3.4,0.4,7,3.1,9.5,5.7c4.7,4.8,4.1,14-0.9,21l15.2,5.5c-1.9,2.2-3.6,4.7-5.8,6.8
		s-4.7,4.1-7.1,6.1c8.4,8.2,9.6,14.5,4.1,22c0.5-1.7,0.8-3.5,1-5.3c0.1-3.1,0.5-6.4-0.5-9.2c-1.3-3.6-4.5-5.6-8.7-4.7
		c-2.8,0.6-5.7,1.7-5,4.8c0.5,2.2,3,4,4.6,6l1-0.8l-0.5,5.8h-0.5c-2.1-1.2-4.5-3.7-6.2-3.3c-2,0.5-4.7,3.6-4.6,5.5
		c0.1,2.2,2.7,5.6,4.6,5.9C416,132.7,420.1,131.5,424.1,131.1z M313.1,128l-1.2,2.6l1.1,0.8c6.5-3.8,8.5-11,12-17.3
		c-2.6-1.7-5.2-2.7-6.8-4.5c-2.4-2.8-4.8-3.7-8.2-2.4c0.2-0.8,0.4-1.6,0.6-2.4c-10.2-2.7-19.6,0.9-20.3,9.4c3.8-1.4,7-2.7,10.2-3.9
		c2.4-0.9,4.9-1.5,7.4-2.3c-0.1,0.1-0.3,0.2-0.4,0.3c0,0.2,0,0.3,0.1,0.4c2.2,2.6,4.3,5.2,6.5,7.7c3.6,4,2.5,7.3-1.2,10.4
		c-7.7,1-15.6,1.5-23.1,3.4c-4,1-7.4,4.5-11,6.9l1.1,2L313.1,128z M335.9,122.1l4.1-3.8l-5.7-1.8l11.6-9.2
		c-11.2,0-22.1,8.9-24.1,19.1l11.1-5.3l3.1,0.9c-11.9,8.5-25.4,12.7-40.1,13.3c6.9,4,13.8,3.1,20.5,1c6.7-2.1,13-4.9,19.5-7.3
		c-0.4,1.6-1.5,3.6-1,5.4c0.6,2.3,1.9,4.2,3.7,5.7c1,0.7,3.7,0,5.1-0.9c0.8-0.4,0.8-2.5,0.6-3.8c0-0.4-1.5-0.8-2.3-1.1
		c-0.2,1.2-0.5,2.4-0.8,3.8c-2.6,0.3-4.4-0.5-2.5-3.5c2.4-3.7,5.1-7.2,8.9-12.3L335.9,122.1z M346.1,139.9l1.9,2
		c-1.3,1.5-2.5,3-4.3,5.1l5.4,3c0.6-1.8,1.3-3.5,2.1-5.9c1.3,0.5,3,1.1,4.6,1.7c3.4,1.2,5.5,4.6,5.2,8.1c-0.3,3.9-1.1,8.7-6.3,8.8
		c-6,0.2-12.4,0.4-18-1.3c-10-3-14.8-10.7-14.3-21.4c-4.9-0.5-7.3,1.3-6.3,5.9c0.5,2.5,2.1,4.9,3.4,7.2c6,10.3,15.6,14.4,26.8,16
		c6.9,1,18.7-5.6,19-14.5c0.2-6.1,0.1-12.8,6.2-17c0.3-0.2,0.4-1.3,0.2-1.8c-2-4.1,0-6.9,3.1-9.2c-5.7-4.4-8.9-4.9-11.5-1.7
		c-5.2-6.7-12-2.7-21.6,7.9c4.6,1.1,8.7,1.9,12.7,3.1c2.6,0.9,5.2,2,7.8,3.2l-0.6,1.2C356.5,138.4,351.5,134.9,346.1,139.9z
		 M328.1,133.8c-0.9,1.6-2.6,3.5-2.9,5.6c-0.8,5.1,0.6,10.2,3.9,14.2c5.1,6.4,15.6,10,23.1,7.2c5.7-2.1,7.3-8.1,3.3-11.7
		c-2.6,3.1-4.7,7.1-9.9,5c-5.2-2.1-6.3-4.3-5.5-9.7L328.1,133.8z M418.1,76.8c-2.3-0.7-4.5-2-6.5-1.7c-1.3,0.2-2.9,2.8-2.9,4.4
		c-0.1,1.6,1.4,4.3,2.6,4.5c2.4,0.5,5.8,0.5,7.6-0.9c4.7-3.7,4.7-10.8,0.7-16.2c-3-4.1-12.3-6.5-16.3-3.7c-1.7,1.2-4.1,4-3.7,5
		c1.2,2.5,3.1,4.7,5.5,6.1c0.9,0.5,3.4-1.6,5-2.7c0.3-0.2-0.3-1.6-0.5-2.5l-4.5,1.2c-0.4,0.2-0.8,0.4-1.2,0.6c2.3-4.8,5.9-6.1,9.7-4
		C418.6,69.7,420,73.5,418.1,76.8L418.1,76.8z M297.4,92c-1.4,3.4-3.5,4-6.9,3.2c-1.6-0.4-3.8,1.5-5.7,2.3c0.5,1.2,0.8,2.8,1.7,3.6
		c4,3.3,10.6,2.1,14.1-2.4c4.7-6,4.8-11.2-0.5-14.7c-2-1.3-5.7-1.7-7.7-0.7c-1.7,0.9-3.2,4.8-2.6,6.6
		C290.9,92.7,293.8,94.8,297.4,92z M303.1,144.4l0.8,1.5c-2.1,2-1.1,4.5,2.5,4.9c4.1,0.5,3.5,2.6,3.6,5.6c-2.1-1.5-3.4-2.8-5-3.4
		c-0.4-0.2-1.6,1.9-2.8,3.3c2.1,0.8,3.6,2,4.8,1.7c2.5-0.5,5.2-1.3,7-2.9c0.9-0.8,1-4.3,0.1-5.4c-4.1-4.6-8.6-8.8-15.6-8
		c-5,0.6-6.6,3.6-4.7,7.8L303.1,144.4z M385.3,98.4c-11.3-1.3-18.3,5.2-26.1,12.6c4.2,0.3,8.2,2,10.3,0.6
		C375.1,107.8,380,102.8,385.3,98.4L385.3,98.4z M308.1,114.5c-1.8,0.2-3.6,0.3-5.3,0.2c-4.8-0.3-9.7-0.1-14.2-1.3
		c-5.5-1.5-9.8,0.3-14.8,2.3C280.4,121.4,292.5,121.2,308.1,114.5L308.1,114.5z M399,72.6c-1.3,4.6-2.1,7.5-3.1,11.1l10.4,1.5
		l0.9-1.1C404.8,80.5,402.3,77.1,399,72.6L399,72.6z M306.2,92.7l-3.6,7.6l7-1.8C308.4,96.4,307.5,94.9,306.2,92.7z"/>
	<path class="st1" d="M267.1,111.1v1.8c-0.9,0.4-1.8,0.8-2.7,1c-7.9,1.2-8.1,1.4-7.5,9.1c0.2,0.7,0.4,1.5,0.7,2.2
		c1.2,5.6,2.4,11.1,3.5,16.7c-1.4-0.3-2.8-0.4-4.2-0.3c-19.4,3.5-38.8,7.1-58.2,10.5c-2.2,0.4-4.5-0.1-6.8-0.1
		c1.7-0.7,3.4-1.8,5.2-2.1c12.4-2.3,24.8-4.4,37.1-6.7c1.7-0.3,3.2-1.3,4.8-2l-0.5-1.4l-26.9,5.4c-0.2-0.8-0.3-1.5-0.5-2.3l19.5-5.1
		c2.3-0.4,4.9-0.6,2.3-3.9l10.2-1.4l11.9-3.5c-0.1-0.6-0.3-1.1-0.4-1.7c-17.4,3.8-35.6,2.9-53,9.7l2.3-3l-37.9,11l-0.3-1l3.6-1.8
		l-3.8-1.8c-1.8,0.9-3.3,2.2-5,2.4c-4.2,0.7-8.4,0.8-12.7,1.2l-12.7,3l0.1,0.7h8.2l-62.6,11.4l0.4,2.1l37.7-6.8l0.4,1.8
		c-2.5,0.6-4.9,1.1-7.4,1.7c-9.1,2-18.2,3.9-27.2,6.1c-4.6,1.1-5,3.1-2,6c1.6,0.6,3.3,1.9,4.6,1.6c6.2-1.3,12.3-3,18.5-4.6
		c11.2-2.6,22.3-5.1,33.5-7.6c10.5-2.4,21-4.7,31.6-6.9c1.4-0.3,3,0.5,4.5,0.8l-0.2,1.4c3.4-0.8,8.5-0.6,9.8-2.6
		c2.5-4.2,6.3-3.9,9.7-5.3l2,1c-1.4,0.4-2.9,0.5-4,1.3c-0.7,0.5-0.6,1.9-0.9,3c-4.2,1.6-8.2,3.8-12.5,4.7
		c-26.5,5.4-53.1,10.3-79.6,15.6c-5.9,1.2-12,2-16.8,6.7c-1.9,1.9-5.5,2-8.2,3s-5.7,2.4-8.9,3.7c3.1,4.7,6.3,4.8,10,3.9
		c4.7-1.1,9.4-1.9,14.1-2.9c4,0.9,8,1.9,12,2.7c0.3,0.1,0.9-1.3,1.6-2.4l-11.5-1.1c3.7-0.8,7.4-1.7,11.2-2.3
		c1.4-0.2,3.9-0.1,4.2,0.5c1.8,4.7,3.9,9.4,4.4,14.3c0.4,3.8-2.9,5.9-6.7,6.7c-3.2,0.6-6.4,1.5-10.4,2.5c0.9,3.2,1.8,6.5,2.7,9.7
		c2.3,7.7,0.1,11.3-7.8,13.2c-1.1,0.2-2.3,0.4-3.4,0.5l-3.2-1.1c2.7-0.7,5.4-1.6,8.1-2.2c2.7-0.6,3.5-2.1,2.8-4.7
		c-1.4-5.4-2.7-10.8-4.1-16.2l19.3-5.9c-1.4-3.4-2.5-6.2-3.7-9.1l-15.8,1.8l1.5-2.9l-18.7,2.3l0.1,1.1l5.7,0.6l-3.9,4.4l0,0
		c-6.6-2.8-13.1-5.8-19.8-8.4c-1.7-0.6-3.9-0.3-5.8,0.1c-5.5,1.1-11,4-16.3,3.5c-5.6-0.6-7.9,1.8-10.3,5.5c-0.8-2-1.5-4-2.2-5.9
		l6.3-4c16.4-3.3,32.8-6.6,49.1-10.2c1.1-0.2,2.6-2.9,2.4-4.1c-0.9-5.3-2.3-10.5-3.6-15.7c-1.8-0.5-3.8-1.7-5.5-1.4
		c-10.8,1.9-21.5,4-32.3,6.3c-8.9,1.9-17.9,3.7-26.7,6.1s-10.7,9.5-4.7,16.1c1.9,1.4,3.6,2.9,5.3,4.4c0.8,0.8,1,2.2,1.5,3.3
		c-8.6-1.2-11.5-4.4-11.8-12.9c-0.2-8.3,2.5-11.4,10.8-13.3c13.1-3,26.1-6.3,39.2-9.3c8.2-1.9,16.4-4.8,24.6-5.1
		c19.1-0.6,37.3-5.8,55.8-9.3c19.8-3.8,39.4-8,59.1-12.1c20.5-4.3,40.9-8.6,61.3-13.2c2.1-0.7,3.8-2.1,4.8-4
		C258.7,110.6,261.4,109.2,267.1,111.1z"/>
	<path class="st2" d="M89.9,206.9c1.4,5.4,2.7,10.8,4.1,16.2c0.7,2.6-0.2,4.1-2.8,4.7s-5.4,1.5-8.1,2.2c-6.3,1.3-12.6,2.7-19,3.7
		c-3.3,0.5-6.7,0.2-10,0.3c-0.4-3.3-0.6-6.7-1.3-10c-0.8-3.6,0.5-5.6,4.1-5.9c2.5-0.2,4.9-0.8,6.3-1l-1-5.2l-0.1,0.1
		c-0.1-2.2,0.6-5-0.5-6.5c-0.9-1.2-4-1.6-5.9-1.3c-5.5,1-10.9,2.5-16.3,3.8l-6.2-3.1c-2.7-1.1-4.5-5.4-8.4-2.4c5,3.1,5.3,5,2.3,10.4
		c-2,3.6-3.6,7.3-5.3,11l1,0.5l-3.6,1.5c-1.6,0.1-3.6,0.7-2.3-2.3c0.3-0.7-0.4-1.7-0.7-2.6c2.4-6.1,1.6-10.2-3-14.1l-1-3l10.1-4.1
		c2.4-3.7,4.7-6.1,10.3-5.5c5.2,0.5,10.8-2.3,16.3-3.5c1.9-0.4,4.1-0.7,5.8-0.1c6.7,2.6,13.2,5.6,19.8,8.4c0.8,1.4,1.4,2.8,1.8,4.3
		c1.1,5.5-1.8,9.5-5.3,13.2l-1.8,2.1c-3.9,4.6-3.5,9.1,1.2,9.8c3.7,0.6,7.7-0.5,11.5-0.9l-0.2-2.1c-1.7,0.1-3.5,0.7-5,0.3
		c-1.3-0.4-2.1-1.9-3.2-3l7.7-3.5l-7.1-2.6c4.3-4.5,8.4-9.3,15.2-9.9L89.9,206.9z"/>
	<path class="st3" d="M261.1,142c-1.2-5.6-2.4-11.2-3.5-16.7c-0.3-0.7-0.5-1.5-0.7-2.2c-0.6-7.7-0.4-7.9,7.5-9.1
		c0.9-0.2,1.8-0.6,2.7-1c1.3,2,3.1,3.8,3.9,6c0.6,1.7,0.1,3.9,0.1,7.1l30.1-6.3c1.1-0.4,2.2-0.6,3.4-0.6c1,0.1,1.8,1,2.7,1.6
		l-2.6,2.3l9.3-1l0.1,0.7l-41.5,9.2c-1.3,4.2,4.6,8.8-2.5,12.1l1-6.5l-8.2,1l3.7,5.5l-4.4,0.9C261.8,144,261.4,143,261.1,142z
		 M259.3,120.3c2.5,2,4.9,4.1,7.6,0.9c0.6-0.7,0.2-3.3-0.3-3.5C263.6,116.4,260.8,116.5,259.3,120.3z M269.7,128.9l-0.3-1.9
		c-1.9,0.4-4,0.4-5.7,1.2c-0.6,0.3-1,2.3-0.7,3.3c0.3,1.3,1.5,2.3,2.2,3.5l1.1-0.9l-2.5-4.4L269.7,128.9z"/>
	<path class="st2" d="M33.1,205l6.2,3.1c-6.4,3.4-6.9,6-2.3,12.8c4.7-2.3,6.3-0.4,6.4,4.6c0.1,3.2,1.4,6.4,1.8,9.7
		c0.2,1.2-0.7,2.6-1.1,3.9l-4.4,1c-0.1-1.2-0.2-2.4-0.3-3.8l3.2,0.9c-2.7-5.7-2.7-5.7-7.3-6.9c-6.4-1.7-9.2-5.7-7.8-12
		c0.5-2.4,2.7-4.4,3.8-6.7C32,209.4,32.6,207.2,33.1,205z"/>
	<path class="st4" d="M424.1,131.1c-4,0.5-8,1.6-11.8,1c-1.9-0.3-4.5-3.8-4.6-5.9c-0.1-1.9,2.6-5,4.6-5.5c1.6-0.4,4.1,2.1,6.2,3.3
		l-6.5,2.1c0.6,2.5,3,3.8,6.8,2.8c4-1.1,7.6-7.8,6.5-12.1c-1.2-4.8-3.3-5.9-8.5-4.4c2.1,1.5,5.6,2.9,5.6,4.4c0,2.4-2.2,4.8-3.5,7.2
		l0.5-5.8l-1,0.8c-1.6-2-4.1-3.8-4.6-6c-0.7-3.1,2.2-4.2,5-4.8c4.3-0.9,7.4,1.1,8.7,4.7c1,2.8,0.6,6.1,0.5,9.2
		c-0.2,1.8-0.5,3.6-1,5.3L424.1,131.1z"/>
	<path class="st1" d="M44,239c0.4-1.3,1.2-2.6,1.1-3.9c-0.4-3.3-1.7-6.5-1.8-9.7c-0.1-4.9-1.7-6.9-6.4-4.6c-4.6-6.8-4-9.4,2.3-12.8
		c5.4-1.3,10.8-2.8,16.3-3.8c1.9-0.3,5,0,5.9,1.3c1.1,1.5,0.4,4.3,0.5,6.5c-0.2-5.4-1.2-6.3-6.3-5c-5.2,1.3-10.2,2.9-15.1,4.9
		c-1.7,0.7-2.5,3.4-4.3,6.2c1.8,0.1,3.5,0.1,5.3,0c2.7-0.4,4.1,0.6,4.5,3.2c0.8,4.2,1.4,8.5,2.4,12.7C49.5,238.2,48,239.6,44,239z"
		/>
	<path class="st5" d="M33.1,205c-0.4,2.2-1.1,4.4-1.8,6.6c-1,2.3-3.2,4.3-3.8,6.7c-1.4,6.3,1.4,10.3,7.8,12c4.6,1.2,4.6,1.2,7.3,6.9
		l-3.2-0.9c0.1,1.4,0.2,2.6,0.3,3.8l-6.5-1v0.1c0-5.6-5.6-11.7-11.1-12.2l-3-1l3.6-1.4l-1-0.5c1.8-3.7,3.4-7.4,5.3-11
		c3-5.4,2.7-7.3-2.3-10.4C28.6,199.6,30.4,203.9,33.1,205z"/>
	<path class="st6" d="M19,225.9l3.1,0.9l-3.9,1.6l1.3,0.7l-1.5,4.8c-0.2,0-0.5,0-0.7,0c-0.9-2.4-1.6-5-2.6-7.3
		c-0.6-1.3-1.3-3.1-2.4-3.5c-6-2.3-5.5-7.6-6-12.3c-0.4-4.2,1.7-6.5,6-6.8l1,3l3,14.1c0.3,0.9,0.9,1.9,0.7,2.6
		C15.5,226.7,17.4,226.1,19,225.9z"/>
	<path class="st7" d="M17.2,234c0.2,0,0.5,0,0.7,0l12.4,1.5l2.8,3.6V239c0.3,0.9,0.6,1.8,0.9,2.7c-5.3,2-10.5,6.5-14.7-0.2L17.2,234
		z"/>
	<path class="st8" d="M346,58.7c1.1,3.3,2.1,6.6,2.8,10c1.1,5.9,0,11.4-5.4,15c-4.1,2.7-8.5,2.2-12.7-0.1c-3.1-1.7-4-4.1-2.6-7.5
		c1.1,2.1,1.7,4.5,3.3,5.7c1.8,1.4,4.1,2.2,6.5,2c3.5-0.6,7.4-1.5,7.4-6.5c3.5-5.7,0.1-10.4-2.3-15.2c0.1-2,0.3-4.1,0.4-6.1
		L346,58.7z"/>
	<path class="st9" d="M407.3,140.9c0.3-1.4,0.6-2.9,1-4.3c2,7.8-2.7,20.4-10,24.1c-12.1,6.2-18.6,7.3-27.1-0.9l-0.5-2.9l4.3,0.3
		c-0.1,0.9-0.2,1.7-0.5,3.8c3.6,0.6,7.9,2.4,11.8,1.9C399.5,161.3,405,155,407.3,140.9z"/>
	<path class="st1" d="M62.2,211.9l1,5.2c-1.4,0.2-3.8,0.8-6.3,1c-3.6,0.3-4.9,2.3-4.1,5.9c0.7,3.3,0.9,6.7,1.3,10
		c-0.3,0-0.6,0-0.9,0c-0.6-2.4-1.1-4.9-1.6-7.3C49.3,216.4,51.4,213.4,62.2,211.9z"/>
	<path class="st10" d="M11.8,194.9c-0.5-1.1-0.7-2.5-1.5-3.3c-1.7-1.6-3.5-3.1-5.3-4.4l0.4-0.4c4.2,2.6,8.6,4.2,13.5,1.9
		c1.4-0.6,2.8-1,4.2-1.4c1,0.9,2,1.9,3.1,2.8l-6.3,4L11.8,194.9z"/>
	<path class="st11" d="M53.2,233.9c0.3,0,0.6,0,0.9,0c3.3-0.1,6.8,0.2,10-0.3c6.4-1,12.7-2.4,19-3.7l3.2,1.1
		c-8.3,1.9-16.6,3.9-25,5.5C58.4,237.2,54.6,238.8,53.2,233.9z"/>
	<path class="st12" d="M343.5,56c-0.1,2-0.3,4.1-0.4,6.1l-5-3.7l-0.1-6.3L343.5,56z"/>
	<path class="st13" d="M92.1,186l11.5,1.1c-0.7,1.1-1.3,2.5-1.6,2.4c-4-0.8-8-1.8-12-2.7L92.1,186z"/>
	<path class="st14" d="M346.1,139.9c5.3-4.9,10.4-1.5,15.4,0.5l0.6-1.2c-2.5-1.2-5.1-2.3-7.8-3.2c-4-1.2-8-2-12.7-3.1
		c9.6-10.6,16.4-14.6,21.6-7.9c2.6-3.2,5.8-2.7,11.5,1.7c-3.2,2.3-5.2,5.1-3.1,9.2c0.2,0.5,0.1,1.5-0.2,1.8c-6.1,4.2-6,10.9-6.2,17
		c-0.3,9-12.2,15.5-19,14.5c-11.2-1.6-20.8-5.8-26.8-16c-1.3-2.3-2.9-4.7-3.4-7.2c-1-4.5,1.4-6.4,6.3-5.8
		c-0.5,10.7,4.2,18.4,14.3,21.4c5.6,1.7,12,1.5,18,1.3c5.2-0.2,6-5,6.3-8.8c0.4-3.6-1.8-7-5.2-8.3c-1.6-0.6-3.2-1.2-4.6-1.7
		c-0.8,2.4-1.5,4.2-2.1,5.9l-5.4-3c1.8-2.1,3.1-3.6,4.3-5.1c3,0.2,6.2-0.2,9,0.6s5.4,2.8,8.1,4.3l-1.2,1.5c-1.6-2.1-3-4.3-4.7-6.3
		C355.4,137.8,350.6,140.1,346.1,139.9z"/>
	<path class="st2" d="M338.1,58.4l5,3.7c2.4,4.8,5.8,9.5,2.3,15.2c-1.8,1.4-3.5,3.2-5.6,4c-1.8,0.7-3.8,0.7-5.6-0.1
		c-1.5-1-2.5-2.5-2.8-4.3c-0.2-1,1.7-3.4,2.3-3.3c1.9,0.3,3.5,1.6,6.2,2.9V70c-1.8-6.8-6.6-9.2-14.1-7.3c-10.1,2.4-15,9.9-12.2,19.9
		c1.4,5.5,3.7,10.7,6.8,15.4c1.3,1.9,5.8,1.7,9.3,1.7c-4.5-3.4-4.1-7.7-2.7-11.5c0.3-0.9,4.6-0.2,7.1-0.3l-4.7,4.6l6.8,2.4
		c4.5,1.3,8.9,2.8,13.5,3.8c4.9,1,9.9,1.5,14.9,2.2l0.2,1.3l-7.6,2.7l-3.5,0.1c-8.5-2.7-17.2-2.8-26-2c-1.5,0-3,0.4-4.4,1.2l6.2,3.6
		c-8.2,2.3-15.4-3-16.5-9.7c-1-5.8-3.2-11.5-4.2-17.3c-1.4-7.8,3.9-17.5,11-20.6C325.5,57.8,331.7,56,338.1,58.4z"/>
	<path class="st2" d="M407.3,140.9c-2.3,14.1-7.8,20.3-21,22c-3.9,0.5-8.2-1.2-11.8-1.9c0.3-2.1,0.4-2.9,0.5-3.8
		c-1.3-3-3.8-6.3-3.4-9.1c0.5-3.8,3.7-6.9,8.7-6.4l-0.6-1.8l-10.8,3.6c3.6-5.9,9.6-7.1,15.2-2.7c-0.4,1.1-1,2.1-1,3.2
		c0.2,1.9,0.5,3.8,0.9,5.7c-0.6,0.6-1.1,1.5-1.8,1.6c-1.5,0.3-3.6,0.8-4.4,0.1s-0.4-2.9-0.5-5.1c-0.5,0-2.2-0.3-2.4,0.1
		c-0.8,1.4-1.2,3-1.1,4.7c0.8,4.7,6.3,8,11.1,7c7.5-1.7,13-5.9,15.2-13.4c2.4-8.2-0.4-15.4-5.5-21.8c-1.7-2.2-3.4-4.7-5.6-6.2
		c-3.7-2.5-7.9-4.2-11.9-6.4c2.9-5.2,7.8-2.6,12.4-1.2l-0.1-0.1l11.1,10.7c1.5-2.4,2.8-4.4,4-6.3c-1.6-0.4-3.1-0.9-4.6-1.4
		c-0.3-0.1,0-1.5,0.1-2.3l4.3-1.8c0.2,2.7,1.3,4,4.2,3.1c2.7,2.2,3.4,5.1,1.1,7.6c-1.8,2-2.7,6.5-8.3,4.3c1,2.9,2.1,5.9,3.1,8.8
		C405.2,134.6,406.3,137.9,407.3,140.9z"/>
	<path class="st15" d="M408.3,111.1c-2.9,1-4-0.4-4.2-3.1l6-4.8l12.5-6l-0.5-1.6c-7.3-3.9-15.5-4.9-23.4-4.3
		c-11.5,1-22.9,3.5-34.3,5.9c-3.6,0.8-6.1,0.9-7.5-1.7c3.2-2.4,6.2-4.8,9.3-7c5.2-3.8-1.9-7.2-0.6-11.1c-0.5,1.1-1.1,2.2-1.6,3.2h-1
		c-0.1-1.2-0.5-3.4-0.2-3.5c2.4-0.8,4.9-1.2,7.4-1.3c1.3,0,2.5,1.3,3.8,2l-0.1-0.1l-2.8,12.8c19.5-5.9,40.3-7.9,60.6,4.1
		C425.1,103.4,416.3,106.6,408.3,111.1z"/>
	<path class="st16" d="M362.1,56c12.2-5.1,22.2,0.1,24,14.4c0.2,1.7,0.3,3.3,0.2,5c-0.5,6.4-2.5,11.1-10,10.4
		c-0.8-2.8-1.5-5.4-2.3-8l0.1,0.1l-4.5-5.7c2.7-8.5,2.5-8.9-6.4-14.3c-0.5-0.3-0.7-1.3-1-2L362.1,56z"/>
	<path class="st2" d="M328.2,133.8l12,10.5c-0.8,5.4,0.3,7.6,5.5,9.7s7.3-1.9,9.9-5c4,3.7,2.4,9.6-3.3,11.7
		c-7.5,2.8-18-0.8-23.1-7.2c-3.3-3.9-4.7-9.1-3.9-14.2C325.6,137.3,327.3,135.4,328.2,133.8z"/>
	<path class="st14" d="M372.1,45c10.2,1.1,17.3,7.1,21.5,15.8c2.1,4.3,1.5,10,1.6,15.1c0.1,3.6-1.8,6-4.9,5.7
		c0-5.1,0.4-10.3-0.1-15.3c-0.9-9.1-14.3-20.3-25.3-13.3c-1.1,0.7-1.9,2-2.8,3.1l0.1-0.1l-5.2,6.8l7.1,1.3c0,1.6,0,3.3,0,4.9
		c-7.4,3.8-12-3.3-9.8-9.4c1.1-2.9,2.6-5.7,4-8.5c3.5-1.3,7-2.6,10.4-4C369.9,46.4,371,45.7,372.1,45z"/>
	<path class="st4" d="M383.1,136.9l-10.1-4.8c0.5-1,1.1-2,1.8-3.4l4.2,3.4c1.8-3,0.7-4.6-1.6-7c-5-5.1-11.3-4.1-17.2-4.9
		c-6.2-0.9-12.3-2.1-18.5-3.2c3.4-4.5,4.5-4.7,9.6-4.1c6.7,0.8,13.6,0.7,20.3,1.6c3.8,0.5,7.5,2.3,11.3,3.4l-0.5,1.6l-6.7-1.8
		c4.9,3.8,9.9,7.3,10.4,14.2L383.1,136.9z"/>
	<path class="st14" d="M336,88.9c2.7-0.8,6.1-0.8,8-2.4c3.7-3.3,6.6-7.6,10.4-12.1c4.4,0.9,6.6,6.1,9.5,10.4
		c0.4,0.6-0.4,2.7-1.1,3.2c-7.4,4.9-14.7,10.7-24.5,6.9C334.3,94.1,334.6,91.7,336,88.9z"/>
	<path class="st17" d="M335.9,122.1h11.8c-3.8,5.1-6.5,8.6-8.9,12.3c-1.9,3-0.2,3.8,2.5,3.5c0.3-1.4,0.5-2.6,0.8-3.8
		c0.8,0.4,2.3,0.7,2.3,1.1c0.1,1.3,0.1,3.4-0.6,3.8c-1.5,0.9-4.1,1.6-5.1,0.9c-1.8-1.4-3.2-3.4-3.7-5.7c-0.4-1.7,0.7-3.8,1-5.3
		c-6.4,2.4-12.8,5.2-19.5,7.3c-6.6,2.1-13.6,3.1-20.5-1c14.8-0.6,28.2-4.8,40.1-13.3L335.9,122.1z"/>
	<path class="st15" d="M383.1,136.9l3-5c-0.3-3.5-0.6-7-1-11.4c2-1.2,4.3-0.3,6.5,2.9c3.7,5.4,7.5,10.5,5.5,17.8
		c-1.9,6.8-5.9,11-13.6,13.2l1.7-2.3c3.2-2.9,3.9-6.2,1.9-10.1L383.1,136.9z"/>
	<path class="st4" d="M418.1,76.8c1.9-3.3,0.5-7.2-4.4-9.8c-3.9-2.1-7.5-0.8-9.7,4c0.4-0.2,0.8-0.4,1.2-0.6l4.5-1.2
		c0.2,0.9,0.8,2.3,0.5,2.5c-1.6,1.1-4.1,3.2-5,2.7c-2.4-1.4-4.3-3.5-5.5-6.1c-0.4-1.1,2-3.9,3.7-5c4-2.7,13.2-0.4,16.3,3.7
		c4,5.3,4,12.5-0.7,16.2c-1.8,1.4-5.1,1.3-7.6,0.9c-1.2-0.2-2.7-3-2.6-4.5c0.1-1.5,1.7-4.2,2.9-4.4
		C413.6,74.8,415.8,76.1,418.1,76.8z"/>
	<path class="st16" d="M389.5,109.2l-6.7-5c3.7-8.3,7.9-10.6,17-9.5l13.1,1.7c0.2,0.7,0.4,1.4,0.5,2.2l-24,10.5L389.5,109.2z"/>
	<path class="st17" d="M338.2,69.4l-11,1.3c-3.5,4.3-4.1,9.4-1,13.3c-1.6,4.8-2.9,8.4-4,11.9c-4.6-3.9-6.8-11.6-4.9-19.8
		c1.3-5.9,4.2-10.8,10.8-12.2C332.8,63.1,336,65.3,338.2,69.4z"/>
	<path class="st18" d="M297.4,92c-3.7,2.7-6.5,0.7-7.5-2c-0.6-1.8,0.9-5.8,2.6-6.6c2-1,5.7-0.6,7.7,0.7c5.3,3.5,5.2,8.7,0.5,14.7
		c-3.5,4.4-10.1,5.6-14.1,2.4c-0.9-0.8-1.1-2.4-1.7-3.6c1.9-0.9,4.1-2.8,5.7-2.3C293.9,96.1,296,95.4,297.4,92z"/>
	<path class="st17" d="M336.1,122l-3.1-0.9l-11.1,5.3c2-10.2,12.9-19.2,24.1-19.1l-11.6,9.2l5.7,1.8l-4.1,3.8L336.1,122z"/>
	<path class="st3" d="M310.1,107.2c3.4-1.4,5.8-0.4,8.2,2.4c1.6,1.9,4.2,2.9,6.8,4.5c-3.5,6.3-5.5,13.5-12,17.3l-1.1-0.8l1.2-2.6
		v-1.1c3.7-3.1,4.8-6.5,1.2-10.4c-2.3-2.5-4.4-5.1-6.5-7.7c-0.1-0.1-0.1-0.3-0.1-0.4c0-0.1,0.2-0.2,0.4-0.3L310.1,107.2z"/>
	<path class="st19" d="M303.1,144.4l-9.3,5.3c-1.9-4.2-0.4-7.3,4.7-7.8c7-0.8,11.5,3.4,15.6,8c0.9,1,0.9,4.5-0.1,5.4
		c-1.8,1.6-4.5,2.4-7,2.9c-1.2,0.2-2.7-0.9-4.8-1.7c1.2-1.4,2.4-3.4,2.8-3.3c1.6,0.6,2.9,1.9,5,3.4c-0.1-2.9,0.5-5.1-3.6-5.6
		c-3.6-0.4-4.6-2.9-2.5-4.9L303.1,144.4z"/>
	<path class="st17" d="M385.3,98.3c-5.2,4.5-10.1,9.5-15.8,13.2c-2.1,1.3-6.1-0.3-10.3-0.6C366.9,103.5,373.9,97,385.3,98.3z"/>
	<path class="st20" d="M308.1,114.4c-15.6,6.7-27.7,7-34.3,1.3c5-2,9.3-3.8,14.8-2.3c4.5,1.2,9.5,1,14.2,1.3
		C304.6,114.7,306.3,114.6,308.1,114.4z"/>
	<path class="st21" d="M313.1,126.9v1.2L280,139.2l-1.1-2c3.6-2.4,7-5.9,11-6.9C297.4,128.4,305.3,127.9,313.1,126.9z"/>
	<path class="st3" d="M310.1,107.2L308,108c-2.5,0.8-4.9,1.4-7.4,2.3c-3.2,1.1-6.4,2.4-10.2,3.9c0.7-8.4,10.1-12.1,20.3-9.4
		C310.4,105.6,310.3,106.4,310.1,107.2z"/>
	<path class="st22" d="M418.8,124c1.3-2.4,3.6-4.8,3.5-7.2c0-1.5-3.6-2.9-5.6-4.4c5.3-1.5,7.3-0.4,8.5,4.4c1.1,4.4-2.5,11-6.5,12.1
		c-3.8,1-6.2-0.3-6.8-2.8l6.5-2.1L418.8,124z"/>
	<path class="st4" d="M399,72.6c3.2,4.5,5.7,8,8.2,11.4l-0.9,1.1l-10.4-1.5C396.9,80.1,397.8,77.2,399,72.6z"/>
	<path class="st23" d="M364.1,68.9c0-1.6,0-3.3,0-4.9c0.1-1.3,0.2-2.5,0.3-4c4.4,1.2,4.4,4.8,3.8,7.9c-1.2,5.5-4.2,6.8-9.4,5.6
		C360.4,72,362.3,70.5,364.1,68.9z"/>
	<path class="st24" d="M353.7,105.1l3.5-0.1l-0.2,3.5l0.7,1.5l-11.3,0.7c-0.2-0.7-0.4-1.4-0.6-2.1L353.7,105.1z"/>
	<path class="st25" d="M372.1,45c-1.1,0.7-2.3,1.4-3.5,2c-3.5,1.4-6.9,2.7-10.4,4c0.3-1.2,0.5-3.3,1.1-3.4
		C363.5,46.5,367.8,45.8,372.1,45z"/>
	<path class="st26" d="M387.1,142c2,3.9,1.3,7.2-1.9,10.1l-1.2-2.2c-0.4-1.9-0.7-3.8-0.9-5.7c0-1,0.6-2.1,1-3.1L387.1,142z"/>
	<path class="st11" d="M346.1,139.9c4.4,0.2,9.3-2.1,13,2.1c1.7,1.9,3.1,4.2,4.7,6.3l1.2-1.5c-2.7-1.5-5.2-3.4-8.1-4.3
		c-2.9-0.8-6-0.5-9-0.6L346.1,139.9z"/>
	<path class="st27" d="M410.1,103.1l-6,4.8l-4.3,1.8c0.7-1.3,1-3.3,2-3.9C404.5,104.6,407.4,104,410.1,103.1z"/>
	<path class="st28" d="M338.2,69.4c-2.2-4.1-5.4-6.3-10.2-5.5l-2.1-1.1c7.6-2,12.4,0.5,14.1,7.3L338.2,69.4z"/>
	<path class="st19" d="M306.2,92.7c1.3,2.2,2.2,3.8,3.3,5.8l-7,1.8L306.2,92.7z"/>
	<path class="st29" d="M336,88.9c-1.4,2.8-1.8,5.2,2.2,6l-2.1,0.1l-6.8-2.4L334,88L336,88.9z"/>
	<path class="st3" d="M192,152c0.3-1,0.3-2.5,0.9-3c1.1-0.8,2.6-0.9,4-1.3l12.9-2.5l-0.5-1.9l-14.4,3.5c-3.4,1.4-7.2,1.1-9.7,5.3
		c-1.2,2.1-6.4,1.8-9.8,2.6l0.2-1.4c-1.5-0.3-3.1-1.1-4.5-0.8c-10.6,2.2-21.1,4.5-31.6,6.9c-11.2,2.5-22.3,5.1-33.5,7.6l-1-0.9
		l7.7-2.1l-0.4-1.6l-15.1,4.4L83.1,170c-3.1-2.9-2.6-4.9,2-6c9-2.2,18.1-4.1,27.2-6.1c2.5-0.5,4.9-1.1,7.4-1.7l-0.4-1.8l-37.7,6.8
		l-0.4-2.1l62.5-11.3l4.4-3.7c4.2-0.4,8.5-0.6,12.7-1.2c1.7-0.3,3.1-1.5,5-2.4l3.8,1.8l-3.6,1.8l0.3,1l37.9-11l-2.3,3
		c17.4-6.9,35.5-5.9,53-9.7c0.1,0.6,0.3,1.1,0.4,1.7l-11.9,3.5l-10.3,1.4l-15.6,2.2l0.3,2.4c2.3-0.2,4.6-0.5,6.9-0.6
		c2-0.1,4,0,6.1,0l-19.5,5.1c0.2,0.8,0.3,1.5,0.5,2.3l26.9-5.4l0.5,1.4c-1.6,0.7-3.1,1.7-4.8,2c-12.4,2.3-24.8,4.4-37.1,6.7
		C195.4,150.2,193.7,151.3,192,152L192,152z M188.1,143c-5.1,0.7-10.7-0.8-15.8,4.2l16-1.4c11.6-1.6,20.2-4.4,21.9-7.9L188.1,143z"
		/>
	<path class="st15" d="M26.2,190c-1-0.9-2-1.9-3.1-2.8l3.1-1.2c-3.5-0.2-6.8,0.8-10,0.6s-6.4-1.5-10.1-2.4l2.2-2.1
		c1.8-0.2,3.6-0.6,5.3-1.1c8.5-2.9,17.1-5.9,25.6-8.8c3.1-1.1,7.1-1,7.5-5.8c0-0.3,1.5-0.4,2.3-0.6c3.6-0.6,7.2-1.1,10.7-1.9
		c4.9-1.2,9.7-2.6,14.5-3.9L74,160c1.2,5.2,2.7,10.4,3.6,15.7c0.2,1.3-1.3,3.9-2.4,4.1C59,183.4,42.6,186.7,26.2,190z"/>
	<path class="st4" d="M89.9,206.9l-0.6,0.1l-11.4-0.5l6.1-4.6l-9.7-2.5l3.9-4.4l-5.7-0.6l-0.1-1.1l18.7-2.3l-1.5,2.9l15.8-1.8
		c1.2,2.9,2.3,5.6,3.7,9.1L89.9,206.9z"/>
	<path class="st10" d="M5,187.1c-6-6.6-4.1-13.6,4.7-16.1c8.9-2.5,17.7-4.3,26.7-6.1c10.7-2.3,21.5-4.4,32.3-6.3
		c1.7-0.3,3.6,0.9,5.5,1.4l0.1-0.1L48,164.9c-12.3,2.6-24.7,5-36.9,8c-4.3,1-6.1,4.8-6.1,9.1l0.3,4.8L5,187.1z"/>
	<path class="st30" d="M74.3,199.4l9.7,2.5l-6.1,4.6l11.4,0.6c-6.9,0.6-10.9,5.4-15.2,9.9l-3.2-0.1c3.5-3.7,6.3-7.8,5.3-13.2
		C75.7,202.1,75.1,200.7,74.3,199.4L74.3,199.4z"/>
	<path class="st31" d="M230.7,137.8c-2,0-4-0.1-6.1,0c-2.3,0.1-4.6,0.4-6.9,0.6l-0.3-2.4l15.6-2.2
		C235.7,137.2,233,137.4,230.7,137.8z"/>
	<path class="st32" d="M83.1,170l14.3-3.1l7.8-0.8l1,0.9c-6.1,1.6-12.3,3.3-18.5,4.6C86.3,171.9,84.6,170.6,83.1,170z"/>
	<path class="st12" d="M194.9,146.8l14.4-3.5l0.5,1.9l-12.8,2.5L194.9,146.8z"/>
	<path class="st33" d="M148.2,144.2l-4.4,3.7h-8.1l-0.1-0.7L148.2,144.2z"/>
	<path class="st34" d="M73.4,223.1c1,1.1,1.9,2.6,3.2,3c1.5,0.5,3.3-0.1,5-0.3l0.2,2.1c-3.9,0.4-7.8,1.5-11.5,0.9
		c-4.7-0.7-5-5.2-1.2-9.8L73.4,223.1z"/>
	<path class="st35" d="M73.4,223.1l-4.3-4.1l1.8-2.1l3.2,0.1l7.1,2.6L73.4,223.1z"/>
	<path class="st36" d="M16,221.1L13,207C17.6,210.9,18.5,215,16,221.1z"/>
	<path class="st37" d="M259.3,120.3c1.6-3.8,4.4-3.9,7.3-2.6c0.5,0.2,0.9,2.8,0.3,3.5C264.1,124.4,261.8,122.3,259.3,120.3z"/>
	<path class="st38" d="M269.7,128.9l-5.8,0.8l2.5,4.4l-1.1,0.9c-0.8-1.2-1.9-2.2-2.2-3.5c-0.3-1,0.1-3,0.7-3.3
		c1.7-0.8,3.8-0.9,5.7-1.2L269.7,128.9z"/>
	<path class="st39" d="M33.1,239.1l-2.8-3.6l-12.4-1.5l1.5-4.8l-1.3-0.7l3.9-1.5C27.6,227.4,33.1,233.5,33.1,239.1z"/>
	<path class="st40" d="M5.4,186.8L5,182l3.3,0.1l-2.2,2.1c3.7,0.9,6.9,2.2,10.1,2.4c3.3,0.2,6.4-0.8,10-0.6l-3.1,1.2
		c-1.4,0.4-2.8,0.8-4.2,1.4C14,190.9,9.6,189.4,5.4,186.8z"/>
	<path class="st28" d="M188.1,143l22.1-5.1c-1.7,3.5-10.3,6.3-21.9,7.9C188.3,144.8,188.2,143.9,188.1,143z"/>
	<path class="st41" d="M188.1,143c0.1,0.9,0.1,1.8,0.2,2.7l-16,1.5C177.4,142.2,183.1,143.7,188.1,143z"/>
	<path class="st42" d="M105.2,166.2l-7.8,0.8l15.1-4.5l0.4,1.6L105.2,166.2z"/>
	<path class="st43" d="M8.4,182.1L5,182c0.1-4.4,1.8-8.1,6.1-9.1c12.2-2.9,24.6-5.3,36.9-7.9l0.9,0.9c-0.8,0.2-2.2,0.4-2.3,0.6
		c-0.3,4.8-4.4,4.7-7.5,5.8c-8.5,3-17,6-25.6,8.8C11.9,181.5,10.2,181.9,8.4,182.1z"/>
	<path class="st12" d="M49,165.8l-0.9-0.9l26.1-4.9c-4.8,1.3-9.6,2.8-14.5,3.9C56.1,164.7,52.5,165.2,49,165.8z"/>
	<text transform="matrix(1 0 0 1 134.33 234.41)" class="st44 st45 st46">EN</text>
	<text transform="matrix(1 0 0 1 183.15 234.41)" class="st44 st45 st46">I</text>
	<text transform="matrix(1 0 0 1 196.39 234.41)" class="st44 st45 st46">GMA</text>
</g>
</svg>
